<?xml version="1.0" standalone="no"?>
<!DOCTYPE svg PUBLIC "-//W3C//DTD SVG 20010904//EN"
 "http://www.w3.org/TR/2001/REC-SVG-20010904/DTD/svg10.dtd">
<svg version="1.0" xmlns="http://www.w3.org/2000/svg"
 width="2559.000000pt" height="1439.000000pt" viewBox="0 0 2559.000000 1439.000000"
 preserveAspectRatio="xMidYMid meet">

<g transform="translate(0.000000,1439.000000) scale(0.100000,-0.100000)"
fill="#000000" stroke="none">
<path d="M0 7195 l0 -7195 2694 0 2693 0 48 138 c334 966 1050 1789 1970 2268
1188 618 2592 618 3780 0 920 -479 1636 -1302 1970 -2268 l48 -138 6193 0
6194 0 0 7195 0 7195 -12795 0 -12795 0 0 -7195z m4410 6305 l0 -160 -50 0
-50 0 0 160 0 160 50 0 50 0 0 -160z m-1093 5 c29 -77 52 -146 52 -152 1 -9
-14 -13 -44 -13 -39 0 -47 3 -55 25 -8 22 -15 25 -60 25 -45 0 -50 -2 -56 -25
-6 -22 -11 -25 -55 -25 -27 0 -49 1 -49 3 0 4 86 240 102 280 10 26 14 28 62
25 l51 -3 52 -140z m1405 135 c21 -6 42 -19 48 -30 16 -30 12 -75 -9 -94 -18
-17 -18 -18 5 -41 24 -24 30 -57 18 -90 -12 -32 -59 -45 -159 -45 l-95 0 0
148 c0 82 3 152 7 155 10 11 144 8 185 -3z m13906 -47 c5 -17 -26 -29 -40 -15
-6 6 -7 15 -3 22 9 14 37 9 43 -7z m1580 0 c5 -17 -26 -29 -40 -15 -6 6 -7 15
-3 22 9 14 37 9 43 -7z m-2248 -87 l0 -94 -57 -1 c-64 0 -75 4 -92 36 -18 34
-13 62 15 89 21 22 31 25 60 20 31 -6 34 -5 34 19 0 18 5 25 20 25 19 0 20 -7
20 -94z m-14400 35 c0 -49 -1 -50 -32 -53 l-33 -3 -3 -72 -3 -73 -49 0 -50 0
0 120 0 120 50 0 c28 0 50 -5 50 -10 0 -6 12 -4 28 4 40 22 42 21 42 -33z
m230 31 c33 -16 37 -16 72 1 46 23 86 16 119 -19 21 -23 24 -37 27 -120 l4
-94 -46 0 -46 0 0 59 c0 74 -13 111 -39 111 -29 0 -41 -30 -41 -104 l0 -66
-45 0 -44 0 -3 76 c-2 59 -7 79 -20 87 -32 21 -48 -8 -48 -89 l0 -74 -45 0
-45 0 0 120 0 121 65 -3 c35 -1 67 1 71 5 11 11 26 8 64 -11z m423 4 c45 -19
68 -48 74 -95 l6 -41 -82 0 c-49 0 -81 -4 -81 -10 0 -17 31 -24 51 -12 10 7
37 12 59 12 50 0 53 -20 9 -61 -57 -53 -172 -34 -201 35 -47 114 53 220 165
172z m808 -17 c46 -33 60 -124 26 -169 -26 -35 -62 -50 -115 -50 -48 0 -58 4
-88 34 -30 30 -34 41 -34 84 0 110 119 167 211 101z m209 16 c17 -9 30 -11 30
-5 0 5 21 10 46 10 l46 0 -4 -142 c-2 -116 -6 -148 -21 -169 -45 -67 -173 -65
-221 3 -27 37 -20 48 28 48 25 0 48 -4 51 -10 11 -17 54 -11 65 9 16 31 13 43
-9 31 -11 -5 -37 -10 -58 -10 -30 0 -46 7 -67 29 -56 59 -40 177 28 207 40 17
51 17 86 -1z m618 0 c43 -18 72 -59 72 -104 l0 -31 -80 0 c-68 0 -79 -2 -73
-16 4 -11 13 -14 32 -9 14 4 45 9 69 12 37 4 42 3 42 -15 0 -11 -14 -32 -31
-46 -37 -32 -114 -36 -156 -9 -29 19 -53 69 -53 110 0 40 35 92 73 108 42 18
58 18 105 0z m10472 -25 l0 -40 40 0 40 0 0 40 c0 33 3 40 20 40 19 0 20 -7
20 -90 0 -83 -1 -90 -20 -90 -17 0 -20 7 -20 40 l0 40 -40 0 -40 0 0 -40 c0
-29 -4 -40 -15 -40 -12 0 -15 17 -15 90 0 73 3 90 15 90 11 0 15 -11 15 -40z
m1468 28 c-3 -7 -19 -14 -36 -16 -42 -4 -46 -39 -5 -44 39 -4 42 -28 4 -28
-26 0 -31 -4 -31 -24 0 -20 6 -25 32 -28 17 -2 33 -9 36 -15 3 -9 -12 -13 -52
-13 l-56 0 0 90 0 90 56 0 c40 0 55 -4 52 -12z m742 -8 c0 -13 7 -20 20 -20
11 0 20 -4 20 -10 0 -5 -9 -10 -20 -10 -17 0 -20 -7 -20 -44 0 -35 4 -45 20
-49 30 -8 24 -27 -8 -27 -40 0 -52 17 -52 71 0 28 -5 50 -12 53 -10 5 -10 7 0
12 6 3 12 14 12 25 0 12 7 19 20 19 13 0 20 -7 20 -20z m1184 4 c9 -8 16 -20
16 -25 0 -12 -37 -12 -45 1 -10 16 -45 12 -45 -5 0 -9 20 -24 45 -35 36 -15
45 -24 45 -44 0 -36 -26 -56 -70 -56 -29 0 -43 6 -55 23 -15 21 -14 22 7 25
12 2 24 -1 26 -7 2 -6 15 -11 28 -11 40 0 28 29 -21 50 -38 16 -45 24 -45 48
0 15 5 33 12 40 17 17 84 15 102 -4z m1734 0 c12 -8 22 -19 22 -25 0 -12 -34
-11 -47 2 -19 19 -66 6 -83 -23 -13 -25 -13 -31 0 -55 17 -30 64 -43 83 -24
13 13 47 14 47 2 0 -19 -45 -41 -83 -41 -29 0 -46 7 -68 29 -37 37 -38 79 -3
120 21 26 33 31 68 31 23 0 52 -7 64 -16z m432 -4 c0 -13 7 -20 20 -20 11 0
20 -4 20 -10 0 -5 -9 -10 -20 -10 -17 0 -20 -7 -20 -44 0 -35 4 -45 20 -49 30
-8 24 -27 -8 -27 -40 0 -52 17 -52 71 0 28 -5 50 -12 53 -10 5 -10 7 0 12 6 3
12 14 12 25 0 12 7 19 20 19 13 0 20 -7 20 -20z m430 0 c0 -11 7 -20 15 -20 8
0 15 -4 15 -10 0 -5 -7 -10 -15 -10 -11 0 -15 -12 -15 -45 0 -33 4 -45 15 -45
8 0 15 -7 15 -15 0 -15 -26 -20 -54 -9 -12 5 -16 20 -16 59 0 33 -5 56 -12 59
-10 5 -10 7 0 12 6 3 12 14 12 25 0 12 7 19 20 19 13 0 20 -7 20 -20z m-16828
-66 c3 -81 17 -104 52 -91 13 5 16 22 16 87 l0 80 45 0 45 0 0 -120 0 -120
-45 0 c-25 0 -45 5 -45 10 0 7 -6 7 -19 0 -22 -11 -71 -13 -96 -4 -30 12 -45
60 -45 149 l0 85 45 0 44 0 3 -76z m11113 23 c35 -50 0 -117 -62 -117 -62 0
-94 65 -58 117 26 36 95 36 120 0z m168 21 c94 8 107 -2 107 -85 0 -40 -4 -53
-15 -53 -11 0 -15 11 -15 43 0 97 -62 104 -68 8 -3 -43 -6 -51 -23 -51 -16 0
-19 7 -19 54 0 58 -8 71 -40 61 -17 -5 -20 -15 -20 -61 0 -47 -2 -54 -20 -54
-18 0 -20 7 -20 69 l0 70 38 4 c20 2 46 1 57 -2 11 -2 28 -4 38 -3z m260 -20
c9 -11 17 -29 17 -39 0 -16 -8 -19 -55 -19 -57 0 -70 -11 -34 -31 15 -8 24 -8
32 0 14 14 47 14 47 1 0 -14 -35 -30 -68 -30 -74 0 -93 113 -23 139 33 12 61
5 84 -21z m1231 21 c34 -16 42 -39 13 -39 -13 0 -28 5 -33 10 -20 20 -44 0
-44 -36 0 -39 22 -54 51 -36 20 13 49 16 49 5 0 -20 -37 -43 -70 -43 -56 0
-88 45 -69 98 15 45 58 61 103 41z m182 1 c23 0 24 -3 24 -69 l0 -69 -57 -1
c-64 0 -75 4 -92 36 -18 34 -13 62 15 90 20 20 32 24 56 19 17 -3 41 -6 54 -6z
m317 -1 c24 -11 47 -47 47 -73 0 -7 -9 -25 -21 -40 -37 -47 -116 -32 -134 25
-11 33 3 67 33 83 33 18 44 19 75 5z m182 -14 c20 -19 25 -34 25 -75 0 -43 -3
-50 -20 -50 -17 0 -20 7 -20 49 0 52 -16 76 -44 65 -12 -5 -16 -19 -16 -60 0
-47 -2 -54 -20 -54 -18 0 -20 7 -20 69 l0 70 33 4 c17 2 38 5 45 5 7 1 24 -9
37 -23z m942 2 c6 -6 15 -24 18 -39 l7 -28 -56 0 c-56 0 -71 -11 -38 -29 11
-6 24 -6 35 1 10 5 25 8 34 6 31 -6 -15 -38 -54 -38 -49 0 -73 24 -73 71 0 49
39 84 85 75 16 -4 35 -12 42 -19z m164 4 c4 -3 12 -24 19 -46 l13 -40 20 48
c14 34 25 47 39 47 15 0 18 -4 13 -17 -4 -10 -16 -42 -27 -70 -16 -43 -24 -53
-43 -53 -20 0 -27 10 -46 64 -13 36 -26 62 -29 57 -3 -4 -13 -10 -22 -14 -14
-5 -18 -18 -18 -57 0 -43 -3 -50 -20 -50 -18 0 -20 7 -20 69 l0 70 33 4 c35 4
78 -2 88 -12z m293 8 c34 -16 42 -39 13 -39 -13 0 -28 5 -33 10 -20 20 -44 0
-44 -36 0 -39 22 -54 51 -36 20 13 49 16 49 5 0 -20 -37 -43 -70 -43 -56 0
-88 45 -69 98 15 45 58 61 103 41z m171 -14 c14 -13 25 -33 25 -45 0 -18 -6
-20 -55 -20 -55 0 -70 -11 -39 -28 10 -6 27 -5 45 1 33 13 47 4 29 -18 -19
-22 -86 -19 -110 5 -43 43 -6 130 55 130 14 0 37 -11 50 -25z m129 15 c14 -5
26 -16 26 -25 0 -18 -31 -20 -48 -3 -9 9 -15 9 -24 0 -9 -9 -2 -15 28 -28 36
-15 53 -30 54 -46 0 -17 -35 -38 -65 -38 -34 0 -70 24 -60 41 9 14 31 11 45
-5 6 -8 18 -12 26 -9 19 7 9 18 -36 41 -42 21 -47 35 -21 61 23 23 38 26 75
11z m969 -1 c24 -11 47 -47 47 -73 0 -7 -9 -25 -21 -40 -37 -47 -116 -32 -134
25 -11 33 3 67 33 83 33 18 44 19 75 5z m182 -14 c20 -19 25 -34 25 -75 0 -43
-3 -50 -20 -50 -17 0 -20 7 -20 49 0 52 -16 76 -44 65 -12 -5 -16 -19 -16 -60
0 -47 -2 -54 -20 -54 -18 0 -20 7 -20 69 l0 70 33 4 c17 2 38 5 45 5 7 1 24
-9 37 -23z m271 15 c23 0 24 -3 24 -69 l0 -69 -57 -1 c-64 0 -75 4 -92 36 -18
34 -13 62 15 90 20 20 32 24 56 19 17 -3 41 -6 54 -6z m162 -6 c40 -28 15 -49
-27 -22 -40 25 -71 -41 -36 -76 16 -15 45 -12 45 5 0 5 9 9 20 9 11 0 20 -7
20 -15 0 -19 -31 -35 -69 -35 -66 0 -95 77 -46 125 28 29 61 32 93 9z m-4198
-26 c0 -56 10 -78 35 -78 25 0 35 22 35 78 0 25 4 32 20 32 18 0 20 -7 20 -70
l0 -70 -59 0 c-71 0 -83 11 -89 86 -4 50 -3 54 17 54 17 0 21 -6 21 -32z m600
-38 c0 -63 -2 -70 -20 -70 -18 0 -20 7 -20 70 0 63 2 70 20 70 18 0 20 -7 20
-70z m1580 0 c0 -63 -2 -70 -20 -70 -18 0 -20 7 -20 70 0 63 2 70 20 70 18 0
20 -7 20 -70z m-3160 -180 c0 -20 -7 -20 -385 -20 -378 0 -385 0 -385 20 0 20
7 20 385 20 378 0 385 0 385 -20z m-10901 -2065 c35 -18 55 -63 46 -104 -24
-109 -207 -87 -207 24 0 76 87 119 161 80z m1487 -62 c-3 -42 -6 -93 -6 -115
l0 -38 -65 0 -65 0 0 33 c0 17 -3 69 -7 115 l-6 82 78 0 78 0 -7 -77z m3914
-358 l0 -375 -90 0 -90 0 0 368 c0 203 3 372 7 375 3 4 44 7 90 7 l83 0 0
-375z m-6108 198 l3 -138 128 -3 127 -3 0 141 0 141 93 -3 92 -3 3 -352 2
-353 -95 0 -95 0 0 145 0 145 -130 0 -130 0 0 -145 0 -145 -90 0 -90 0 0 355
0 355 90 0 89 0 3 -137z m1538 -218 l0 -355 -90 0 -90 0 0 355 0 355 90 0 90
0 0 -355z m2037 95 c51 -140 108 -299 127 -352 l35 -98 -93 0 -94 0 -19 58
-20 57 -133 0 -133 0 -19 -57 -20 -58 -89 0 c-49 0 -89 4 -89 9 0 7 215 607
242 674 l11 28 101 -3 101 -3 92 -255z m-1707 185 l0 -65 55 0 55 0 0 -75 0
-75 -55 0 -55 0 0 -123 c0 -82 4 -127 12 -135 7 -7 31 -12 55 -12 l43 0 0 -75
0 -75 -78 0 c-103 0 -157 26 -189 90 -21 40 -23 59 -23 187 l0 143 -35 0 -35
0 0 75 0 75 35 0 35 0 0 65 0 65 90 0 90 0 0 -65z m-1130 -350 l0 -285 -90 0
-90 0 0 278 c0 153 3 282 7 285 3 4 44 7 90 7 l83 0 0 -285z m1871 274 c71
-24 118 -75 140 -151 l8 -28 -81 0 c-76 0 -81 1 -108 30 -41 44 -120 37 -120
-11 0 -23 32 -39 142 -70 91 -26 143 -64 159 -119 36 -118 -69 -220 -226 -220
-113 0 -209 53 -246 135 -30 64 -29 65 69 65 86 0 87 -1 104 -29 21 -38 76
-51 113 -27 52 34 23 64 -90 90 -126 30 -183 77 -192 157 -11 109 83 189 222
189 39 0 87 -5 106 -11z m1559 -78 l0 -90 -57 -7 c-114 -13 -123 -30 -123
-234 l0 -150 -90 0 -90 0 0 280 0 280 90 0 90 0 0 -42 0 -42 33 32 c35 34 89
61 125 62 21 0 22 -3 22 -89z m517 65 c28 -14 59 -36 69 -51 l17 -26 36 35
c113 110 301 77 365 -64 18 -39 21 -70 24 -242 l4 -198 -91 0 -91 0 0 170 c0
187 -6 211 -55 235 -39 18 -52 19 -94 4 -54 -19 -61 -47 -61 -239 l0 -170 -90
0 -90 0 0 178 c0 198 -4 212 -65 232 -45 15 -86 6 -116 -26 -23 -25 -24 -32
-27 -205 l-3 -179 -85 0 -84 0 0 280 0 280 85 0 85 0 0 -32 0 -31 23 21 c59
56 159 67 244 28z m985 8 c101 -34 163 -123 175 -249 l6 -65 -197 0 c-212 0
-210 1 -185 -54 15 -33 71 -59 108 -51 16 3 39 17 51 31 22 22 31 24 112 24
96 0 98 -2 72 -56 -74 -156 -325 -191 -453 -63 -57 57 -76 111 -76 214 1 78 5
97 28 141 32 63 86 110 147 129 61 18 156 18 212 -1z m-4613 -386 c0 -7 -28
-83 -62 -168 l-62 -155 -58 -3 c-69 -4 -67 -16 -27 183 17 81 30 150 30 152 0
1 41 3 90 3 66 0 90 -3 89 -12z m4411 -823 c0 -309 -2 -355 -15 -355 -13 0
-15 46 -15 355 0 309 2 355 15 355 13 0 15 -46 15 -355z m-5484 168 c-3 -21
-6 -46 -6 -55 0 -12 -8 -18 -24 -18 -28 0 -36 16 -36 71 0 38 1 39 36 39 l37
0 -7 -37z m2404 -54 l0 -60 22 15 c13 9 43 16 71 16 42 0 54 -5 82 -33 59 -59
59 -155 0 -214 -28 -28 -40 -33 -82 -33 -28 0 -58 7 -71 16 -20 14 -22 14 -22
0 0 -12 -10 -16 -35 -16 l-35 0 0 185 0 185 35 0 35 0 0 -61z m1750 -124 l0
-185 -40 0 -40 0 0 185 0 185 40 0 40 0 0 -185z m-4270 -10 l0 -175 -35 0 -35
0 0 175 0 175 35 0 35 0 0 -175z m1700 55 c15 -63 28 -121 31 -129 3 -7 20 46
38 118 l34 131 41 0 42 0 28 -117 c16 -65 32 -122 36 -126 4 -5 10 7 14 25 3
18 16 75 27 126 l21 92 39 0 c22 0 39 -1 39 -2 0 -2 -22 -79 -48 -173 l-48
-170 -44 0 -44 0 -31 120 -32 120 -16 -55 c-9 -30 -24 -85 -33 -122 l-18 -68
-42 0 c-32 0 -44 4 -48 18 -14 44 -86 317 -86 325 0 4 17 7 37 5 l37 -3 26
-115z m1424 100 c134 -65 119 -271 -23 -319 -19 -6 -69 -11 -112 -11 l-79 0 0
175 0 175 87 0 c66 0 96 -5 127 -20z m-2776 -66 c19 -13 22 -13 22 1 0 11 10
15 35 15 l35 0 0 -140 0 -140 -35 0 c-23 0 -35 5 -35 14 0 11 -8 10 -37 -6
-64 -32 -137 -7 -167 57 -21 44 -20 119 2 157 34 60 120 80 180 42z m379 6 c1
0 9 -7 17 -15 14 -14 18 -14 45 6 53 39 143 22 172 -32 6 -12 14 -69 17 -125
l5 -104 -41 0 -40 0 -4 96 c-2 81 -6 98 -22 110 -26 19 -55 18 -78 -3 -15 -13
-18 -32 -18 -110 l0 -93 -40 0 -40 0 0 92 c0 99 -12 128 -55 128 -49 0 -60
-21 -63 -124 l-4 -96 -34 0 -34 0 0 140 0 140 34 0 c19 0 36 -6 39 -12 3 -10
7 -10 18 -1 19 16 58 20 94 11 16 -4 31 -8 32 -8z m611 -6 c19 -13 22 -13 22
1 0 11 10 15 35 15 l35 0 0 -140 0 -140 -35 0 c-23 0 -35 5 -35 14 0 11 -8 10
-37 -6 -64 -32 -137 -7 -167 57 -21 44 -20 119 2 157 34 60 120 80 180 42z
m992 1 c42 -22 66 -75 61 -132 -1 -10 -28 -13 -101 -13 -107 0 -121 -8 -80
-45 24 -22 65 -23 89 -1 9 9 34 16 55 16 l37 0 -16 -30 c-21 -40 -63 -60 -126
-60 -46 0 -55 4 -90 39 -37 37 -39 42 -39 101 0 59 2 64 39 101 35 35 44 39
90 39 29 0 65 -7 81 -15z m1144 -6 c34 -27 56 -70 56 -109 l0 -30 -105 0
c-104 0 -104 0 -96 -22 11 -32 53 -51 85 -38 14 5 26 14 26 20 0 5 18 10 40
10 49 0 50 -12 6 -56 -30 -30 -40 -34 -87 -34 -67 0 -115 27 -135 75 -29 70
-8 150 48 185 46 28 126 27 162 -1z m185 -79 c18 -55 36 -98 40 -96 4 3 20 48
36 100 l28 96 38 0 c22 0 39 -2 39 -5 0 -3 -75 -206 -95 -257 -5 -13 -18 -18
-50 -18 l-43 0 -45 123 c-25 67 -49 130 -52 140 -6 14 -1 17 32 17 l39 0 33
-100z m421 84 c37 -22 60 -64 60 -108 l0 -36 -100 0 c-110 0 -124 -10 -73 -49
27 -22 54 -21 84 5 20 18 79 19 79 2 -1 -17 -20 -40 -50 -61 -31 -21 -111 -22
-150 -2 -83 43 -85 205 -2 249 36 20 117 20 152 0z m481 -21 c57 -56 57 -150
0 -207 -26 -26 -39 -31 -95 -34 -61 -4 -65 -3 -101 30 -33 30 -39 42 -43 90
-8 104 48 162 151 155 48 -3 63 -8 88 -34z m169 21 c0 -14 2 -14 22 0 29 20
90 20 128 1 76 -39 87 -169 20 -237 -23 -23 -37 -28 -77 -28 -28 0 -58 7 -71
16 l-22 15 0 -80 0 -81 -40 0 -40 0 0 205 0 205 40 0 c30 0 40 -4 40 -16z
m468 -4 c35 -21 62 -72 62 -115 l0 -25 -105 0 c-58 0 -105 -3 -105 -6 0 -17
24 -46 46 -54 25 -10 74 5 74 22 0 4 18 8 40 8 48 0 50 -9 11 -52 -24 -27 -36
-32 -87 -35 -69 -4 -99 8 -131 56 -45 67 -20 174 47 208 38 19 110 16 148 -7z
m182 4 c0 -14 2 -14 22 0 12 9 33 16 45 16 20 0 23 -5 23 -35 0 -30 -3 -35
-23 -35 -12 0 -33 -7 -45 -16 -20 -14 -22 -23 -22 -105 l0 -89 -35 0 -35 0 0
140 0 140 35 0 c25 0 35 -4 35 -16z m1710 -872 c-46 -62 -47 -164 -4 -227 l23
-35 -24 0 c-37 0 -68 67 -68 145 0 78 31 145 69 145 l25 0 -21 -28z m640 -14
c48 -85 18 -248 -46 -248 l-25 0 19 25 c48 61 49 171 1 238 l-20 27 24 0 c17
0 30 -11 47 -42z m-6540 -13 c0 -8 -4 -15 -10 -15 -5 0 -10 -7 -10 -15 0 -22
37 -18 43 5 3 11 13 20 22 20 9 0 19 -9 22 -20 4 -15 14 -20 39 -20 31 0 34
-3 45 -42 l12 -43 12 40 c9 32 16 40 36 40 19 0 25 -7 33 -40 l10 -40 11 40
c8 28 18 41 32 43 l21 3 -22 -70 c-18 -59 -25 -71 -43 -71 -16 0 -23 8 -28 30
-10 43 -23 46 -31 5 -5 -28 -11 -35 -29 -35 -18 0 -25 10 -40 60 -14 45 -23
60 -37 60 -15 0 -18 -8 -18 -45 0 -33 4 -45 15 -45 8 0 15 -7 15 -15 0 -10
-10 -15 -30 -15 -35 0 -50 27 -50 86 0 27 -4 34 -20 34 -18 0 -20 -7 -20 -60
0 -53 -2 -60 -20 -60 -18 0 -20 7 -20 59 0 38 -5 61 -12 65 -10 5 -10 7 0 12
6 3 12 13 12 23 0 9 5 22 12 29 17 17 48 15 48 -3z m1720 0 c0 -8 -4 -15 -10
-15 -5 0 -10 -7 -10 -15 0 -8 7 -15 15 -15 8 0 15 -4 15 -10 0 -5 -7 -10 -15
-10 -12 0 -15 -13 -15 -60 0 -53 -2 -60 -20 -60 -18 0 -20 7 -20 59 0 38 -5
61 -12 65 -10 5 -10 7 0 12 6 3 12 13 12 23 0 9 5 22 12 29 17 17 48 15 48 -3z
m870 -5 c0 -13 -7 -20 -20 -20 -13 0 -20 7 -20 20 0 13 7 20 20 20 13 0 20 -7
20 -20z m2128 3 c5 -17 -26 -29 -40 -15 -6 6 -7 15 -3 22 9 14 37 9 43 -7z
m652 -3 c0 -13 -7 -20 -20 -20 -13 0 -20 7 -20 20 0 13 7 20 20 20 13 0 20 -7
20 -20z m3048 3 c5 -17 -26 -29 -40 -15 -6 6 -7 15 -3 22 9 14 37 9 43 -7z
m2270 0 c5 -17 -26 -29 -40 -15 -6 6 -7 15 -3 22 9 14 37 9 43 -7z m-9368 -88
l0 -95 -57 0 c-70 0 -93 17 -93 71 0 48 39 84 82 75 25 -5 28 -2 28 19 0 18 5
25 20 25 19 0 20 -7 20 -95z m5910 1 l0 -94 -60 -1 c-48 0 -65 4 -80 19 -28
28 -26 75 6 106 21 22 31 25 60 20 31 -6 34 -5 34 19 0 18 5 25 20 25 19 0 20
-7 20 -94z m2260 68 c0 -23 3 -25 24 -20 75 19 125 -73 71 -128 -11 -11 -34
-15 -75 -15 l-60 1 0 94 c0 87 1 94 20 94 15 0 20 -7 20 -26z m980 -69 c0 -88
-1 -95 -20 -95 -19 0 -20 7 -20 95 0 88 1 95 20 95 19 0 20 -7 20 -95z m1460
0 c0 -88 -1 -95 -20 -95 -19 0 -20 7 -20 95 0 88 1 95 20 95 19 0 20 -7 20
-95z m870 70 c0 -21 3 -24 28 -19 63 13 106 -67 66 -124 -13 -19 -24 -22 -75
-22 l-59 0 0 95 c0 88 1 95 20 95 15 0 20 -7 20 -25z m170 -70 c0 -88 -1 -95
-20 -95 -19 0 -20 7 -20 95 0 88 1 95 20 95 19 0 20 -7 20 -95z m-14210 -5 c0
-83 -1 -90 -20 -90 -19 0 -20 7 -20 90 0 83 1 90 20 90 19 0 20 -7 20 -90z
m968 78 c18 -18 14 -38 -8 -38 -11 0 -20 5 -20 10 0 6 -12 10 -26 10 -38 0
-27 -32 14 -44 19 -5 41 -20 49 -33 14 -21 14 -25 -1 -48 -13 -20 -25 -25 -56
-25 -36 0 -70 19 -70 41 0 13 27 11 49 -3 22 -13 54 -4 49 15 -3 6 -18 17 -35
22 -61 20 -80 57 -47 89 18 19 85 21 102 4z m1732 -78 c0 -83 -1 -90 -20 -90
-19 0 -20 7 -20 90 0 83 1 90 20 90 19 0 20 -7 20 -90z m1040 70 c0 -11 7 -20
15 -20 8 0 15 -4 15 -10 0 -5 -7 -10 -15 -10 -11 0 -15 -12 -15 -45 0 -33 4
-45 15 -45 8 0 15 -7 15 -15 0 -15 -26 -20 -54 -9 -12 5 -16 20 -16 59 0 33
-5 56 -12 59 -10 5 -10 7 0 12 6 3 12 14 12 25 0 12 7 19 20 19 13 0 20 -7 20
-20z m634 4 c9 -8 16 -20 16 -25 0 -12 -37 -12 -45 1 -10 16 -45 12 -45 -5 0
-9 20 -24 45 -35 36 -15 45 -24 45 -44 0 -36 -26 -56 -70 -56 -29 0 -43 6 -55
23 -15 21 -14 22 7 25 12 2 24 -1 26 -7 2 -6 15 -11 28 -11 40 0 28 29 -21 50
-38 16 -45 24 -45 48 0 15 5 33 12 40 17 17 84 15 102 -4z m376 -4 c0 -11 7
-20 15 -20 8 0 15 -4 15 -10 0 -5 -7 -10 -15 -10 -11 0 -15 -12 -15 -45 0 -33
4 -45 15 -45 8 0 15 -7 15 -15 0 -15 -26 -20 -54 -9 -12 5 -16 20 -16 59 0 33
-5 56 -12 59 -10 5 -10 7 0 12 6 3 12 14 12 25 0 12 7 19 20 19 13 0 20 -7 20
-20z m798 8 c-3 -7 -19 -14 -36 -16 -42 -4 -46 -39 -5 -44 39 -4 42 -28 4 -28
-26 0 -31 -4 -31 -24 0 -20 6 -25 32 -28 17 -2 33 -9 36 -15 3 -9 -12 -13 -52
-13 l-56 0 0 90 0 90 56 0 c40 0 55 -4 52 -12z m1780 -4 c12 -8 22 -19 22 -25
0 -12 -47 -12 -55 1 -19 31 -85 -6 -85 -48 0 -54 59 -81 96 -44 17 16 16 17
-16 22 -59 9 -49 30 14 30 52 0 56 -2 56 -24 0 -39 -46 -76 -94 -76 -66 0
-108 52 -92 115 15 59 101 87 154 49z m92 -59 l0 -75 30 0 c20 0 30 -5 30 -15
0 -11 -12 -15 -50 -15 l-50 0 0 90 c0 83 1 90 20 90 18 0 20 -7 20 -75z m188
63 c18 -18 14 -38 -8 -38 -11 0 -20 5 -20 10 0 6 -12 10 -26 10 -38 0 -27 -32
14 -44 19 -5 41 -20 49 -33 14 -21 14 -25 -1 -48 -13 -20 -25 -25 -56 -25 -36
0 -70 19 -70 41 0 13 27 11 49 -3 22 -13 54 -4 49 15 -3 6 -18 17 -35 22 -61
20 -80 57 -47 89 18 19 85 21 102 4z m82 -78 c0 -83 -1 -90 -20 -90 -19 0 -20
7 -20 90 0 83 1 90 20 90 19 0 20 -7 20 -90z m410 70 c0 -11 7 -20 15 -20 8 0
15 -4 15 -10 0 -5 -7 -10 -15 -10 -11 0 -15 -12 -15 -45 0 -33 4 -45 15 -45 8
0 15 -7 15 -15 0 -15 -26 -20 -54 -9 -12 5 -16 20 -16 59 0 33 -5 56 -12 59
-10 5 -10 7 0 12 6 3 12 14 12 25 0 12 7 19 20 19 13 0 20 -7 20 -20z m767 0
c3 -11 12 -20 19 -20 8 0 14 -4 14 -10 0 -5 -7 -10 -15 -10 -11 0 -15 -12 -15
-45 0 -33 4 -45 15 -45 8 0 15 -7 15 -15 0 -18 -55 -21 -65 -4 -13 20 -22 124
-14 147 11 27 39 29 46 2z m1370 0 c3 -11 12 -20 19 -20 8 0 14 -4 14 -10 0
-5 -7 -10 -15 -10 -11 0 -15 -12 -15 -45 0 -33 4 -45 15 -45 8 0 15 -7 15 -15
0 -18 -55 -21 -65 -4 -13 20 -22 124 -14 147 11 27 39 29 46 2z m1010 0 c3
-11 12 -20 19 -20 8 0 14 -4 14 -10 0 -5 -7 -10 -15 -10 -11 0 -15 -12 -15
-45 0 -33 4 -45 15 -45 8 0 15 -7 15 -15 0 -18 -55 -21 -65 -4 -13 20 -22 124
-14 147 11 27 39 29 46 2z m-11026 -20 c17 0 19 -8 19 -69 l0 -69 -57 -1 c-71
0 -93 16 -93 70 0 48 39 84 84 75 15 -3 37 -6 47 -6z m179 -1 c8 0 27 3 42 6
21 6 32 1 52 -18 21 -21 26 -36 26 -77 0 -43 -3 -50 -20 -50 -17 0 -20 7 -20
43 0 51 -18 81 -43 71 -13 -5 -17 -18 -17 -60 0 -51 -1 -54 -25 -54 -24 0 -25
3 -25 55 0 41 -4 57 -16 62 -24 9 -36 -11 -42 -66 -4 -41 -8 -51 -23 -51 -17
0 -19 8 -19 69 l0 70 33 4 c17 2 43 2 57 0 14 -2 32 -4 40 -4z m336 1 c23 0
24 -3 24 -69 l0 -69 -60 -1 c-48 0 -65 4 -80 19 -47 47 -2 139 62 126 17 -3
41 -6 54 -6z m378 -1 c27 -13 49 -60 39 -87 -13 -36 -36 -52 -75 -52 -45 0
-78 28 -78 66 0 64 55 99 114 73z m582 1 c23 0 24 -3 24 -69 l0 -69 -57 -1
c-64 0 -75 4 -92 36 -18 34 -13 62 15 90 20 20 32 24 56 19 17 -3 41 -6 54 -6z
m134 -9 c0 -10 -9 -21 -20 -24 -17 -4 -20 -14 -20 -56 0 -44 -3 -51 -20 -51
-18 0 -20 7 -20 69 l0 70 33 4 c17 2 35 5 40 5 4 1 7 -6 7 -17z m137 -4 c6 -6
15 -24 18 -39 l7 -28 -56 0 c-56 0 -71 -11 -38 -29 11 -6 24 -6 35 1 10 5 25
8 34 6 31 -6 -15 -38 -54 -38 -49 0 -73 24 -73 71 0 49 39 84 85 75 16 -4 35
-12 42 -19z m234 13 c17 0 19 -8 19 -69 l0 -69 -57 -1 c-61 0 -80 9 -94 48
-20 52 27 105 85 96 16 -3 37 -5 47 -5z m169 -10 c15 -15 20 -33 20 -75 0 -48
-2 -55 -20 -55 -17 0 -20 7 -20 49 0 56 -19 82 -45 61 -10 -8 -15 -30 -15 -61
0 -42 -3 -49 -20 -49 -18 0 -20 7 -20 69 l0 70 33 4 c17 2 40 5 50 5 9 1 26
-7 37 -18z m480 0 c15 -15 20 -33 20 -75 0 -48 -2 -55 -20 -55 -17 0 -20 7
-20 49 0 56 -19 82 -45 61 -10 -8 -15 -30 -15 -61 0 -42 -3 -49 -20 -49 -18 0
-20 7 -20 69 l0 70 33 4 c17 2 40 5 50 5 9 1 26 -7 37 -18z m263 -11 c42 -51
7 -119 -61 -119 -74 0 -103 79 -47 128 33 28 79 25 108 -9z m117 12 c0 -10 -9
-21 -20 -24 -17 -4 -20 -14 -20 -56 0 -44 -3 -51 -20 -51 -18 0 -20 7 -20 69
l0 70 33 4 c17 2 35 5 40 5 4 1 7 -6 7 -17z m150 8 c8 0 27 3 42 6 43 11 68
-23 68 -90 0 -48 -2 -55 -20 -55 -17 0 -20 7 -20 49 0 56 -19 82 -45 61 -10
-8 -15 -30 -15 -61 0 -42 -3 -49 -20 -49 -17 0 -20 7 -20 49 0 56 -19 82 -45
61 -10 -8 -15 -30 -15 -61 0 -42 -3 -49 -20 -49 -18 0 -20 7 -20 69 l0 70 33
4 c17 2 43 2 57 0 14 -2 32 -4 40 -4z m261 1 c17 0 19 -8 19 -69 l0 -69 -57
-1 c-71 0 -93 16 -93 70 0 48 39 84 84 75 15 -3 37 -6 47 -6z m323 -1 c27 -13
49 -60 39 -87 -13 -36 -36 -52 -75 -52 -45 0 -78 28 -78 66 0 64 55 99 114 73z
m176 -7 c18 -14 24 -32 28 -75 4 -56 4 -57 -22 -57 -25 0 -26 2 -26 55 0 41
-4 57 -16 62 -24 9 -36 -11 -42 -66 -4 -41 -8 -51 -23 -51 -17 0 -19 8 -19 69
l0 70 33 4 c17 2 39 5 48 5 9 1 27 -6 39 -16z m518 2 c12 -8 22 -19 22 -25 0
-13 -34 -11 -48 3 -9 9 -15 9 -23 1 -9 -9 -2 -16 27 -30 42 -20 55 -51 30 -72
-20 -17 -87 -10 -100 11 -14 23 0 35 24 20 23 -14 50 -16 50 -3 0 5 -16 15
-35 21 -44 15 -56 47 -25 72 27 22 49 23 78 2z m256 -5 c15 -12 26 -30 26 -44
0 -22 -4 -24 -57 -27 -54 -3 -56 -4 -39 -20 13 -14 22 -15 36 -8 10 6 29 10
41 10 21 0 22 -1 4 -20 -20 -22 -73 -27 -105 -10 -24 13 -36 71 -20 100 22 41
74 50 114 19z m155 11 c12 -6 29 -5 49 2 25 10 34 9 56 -5 23 -16 26 -24 26
-77 0 -53 -2 -60 -20 -60 -18 0 -20 7 -20 54 0 41 -4 55 -16 60 -28 11 -44
-13 -44 -65 0 -42 -3 -49 -20 -49 -18 0 -20 7 -20 54 0 41 -4 55 -16 60 -28
11 -44 -13 -44 -65 0 -42 -3 -49 -20 -49 -18 0 -20 7 -20 69 l0 70 33 4 c17 2
38 5 45 5 7 1 21 -2 31 -8z m264 -12 l22 -23 -25 -3 c-13 -2 -26 1 -28 7 -5
16 -32 13 -32 -3 0 -8 15 -20 34 -26 39 -13 51 -33 36 -61 -15 -27 -80 -26
-105 1 -17 18 -17 20 -1 26 10 4 22 2 29 -5 13 -13 47 -15 47 -3 0 5 -18 16
-40 25 -32 12 -40 20 -40 42 0 45 66 59 103 23z m355 6 c19 -13 22 -24 22 -75
0 -52 -2 -59 -20 -59 -18 0 -20 7 -20 54 0 41 -4 55 -16 60 -28 11 -44 -13
-44 -65 0 -42 -3 -49 -20 -49 -18 0 -20 7 -20 69 l0 70 33 4 c17 2 39 5 47 5
9 1 26 -5 38 -14z m179 6 l25 0 -4 -91 c-3 -102 -14 -119 -77 -119 -32 0 -71
23 -71 42 0 12 27 10 50 -4 23 -15 53 -2 58 24 2 12 -4 14 -22 11 -40 -8 -72
4 -84 32 -18 39 -14 63 14 92 20 20 32 24 56 19 17 -3 42 -6 55 -6z m233 -8
c18 -14 24 -32 28 -75 4 -56 4 -57 -22 -57 -25 0 -26 2 -26 55 0 41 -4 57 -16
62 -24 9 -36 -11 -42 -66 -4 -41 -8 -51 -23 -51 -17 0 -19 8 -19 69 l0 70 33
4 c17 2 39 5 48 5 9 1 27 -6 39 -16z m153 7 c14 -6 30 -23 37 -38 l13 -26 9
26 c20 58 111 60 137 3 18 -40 14 -44 -44 -44 -56 0 -70 -11 -36 -30 13 -7 22
-7 26 0 3 5 18 10 32 10 25 0 26 0 8 -20 -33 -37 -125 -17 -125 27 0 9 -16 13
-60 13 -61 0 -76 -11 -41 -30 13 -7 22 -7 26 0 3 5 18 10 32 10 25 0 26 0 8
-20 -23 -26 -86 -27 -107 -2 -23 27 -28 49 -17 80 15 44 58 61 102 41z m305
-12 c2 -11 -3 -17 -16 -17 -21 0 -32 -25 -32 -77 0 -26 -4 -33 -20 -33 -18 0
-20 7 -20 69 l0 70 33 4 c44 5 51 3 55 -16z m200 7 c19 -13 22 -24 22 -75 0
-52 -2 -59 -20 -59 -18 0 -20 7 -20 54 0 41 -4 55 -16 60 -28 11 -44 -13 -44
-65 0 -42 -3 -49 -20 -49 -18 0 -20 7 -20 69 l0 70 33 4 c17 2 39 5 47 5 9 1
26 -5 38 -14z m178 6 c23 0 24 -3 24 -79 0 -97 -20 -131 -77 -131 -34 0 -73
22 -73 42 0 11 38 10 45 -2 10 -17 44 -11 55 9 14 27 14 27 -29 23 -75 -7
-109 71 -55 125 20 20 32 24 56 19 17 -3 41 -6 54 -6z m1072 -6 c12 -8 22 -19
22 -25 0 -13 -34 -11 -47 2 -11 11 -33 5 -33 -10 0 -5 14 -12 31 -17 40 -12
58 -37 43 -61 -15 -25 -92 -25 -108 -1 -14 23 0 35 24 20 11 -7 27 -12 35 -12
28 0 15 17 -25 33 -28 11 -40 21 -40 36 0 21 35 51 60 51 9 0 26 -7 38 -16z
m585 5 c23 -10 47 -46 47 -69 0 -6 -25 -10 -55 -10 -56 0 -70 -11 -36 -30 13
-7 22 -7 26 0 3 5 18 10 32 10 25 0 26 0 8 -20 -23 -26 -86 -27 -107 -2 -23
27 -28 49 -17 80 15 44 58 61 102 41z m177 -7 c18 -14 24 -32 28 -75 4 -56 4
-57 -22 -57 -25 0 -26 2 -26 55 0 41 -4 57 -16 62 -24 9 -36 -11 -42 -66 -4
-41 -8 -51 -23 -51 -17 0 -19 8 -19 69 l0 70 33 4 c17 2 39 5 48 5 9 1 27 -6
39 -16z m344 -3 c30 -24 35 -72 10 -107 -11 -16 -25 -22 -54 -22 -36 0 -39 -2
-42 -32 -2 -22 -9 -34 -20 -36 -16 -3 -18 7 -18 102 l0 105 33 4 c17 2 39 5
48 5 9 1 28 -7 43 -19z m172 11 c23 0 24 -3 24 -69 l0 -69 -57 -1 c-64 0 -75
4 -92 36 -18 34 -13 62 15 90 20 20 32 24 56 19 17 -3 41 -6 54 -6z m142 -6
c12 -8 22 -19 22 -25 0 -13 -34 -11 -48 3 -9 9 -15 9 -23 1 -9 -9 -2 -16 27
-30 42 -20 55 -51 30 -72 -20 -17 -87 -10 -100 11 -14 23 0 35 24 20 23 -14
50 -16 50 -3 0 5 -16 15 -35 21 -44 15 -56 47 -25 72 27 22 49 23 78 2z m140
0 c12 -8 22 -19 22 -25 0 -13 -34 -11 -48 3 -9 9 -15 9 -23 1 -9 -9 -2 -16 27
-30 42 -20 55 -51 30 -72 -20 -17 -87 -10 -100 11 -14 23 0 35 24 20 23 -14
50 -16 50 -3 0 5 -16 15 -35 21 -44 15 -56 47 -25 72 27 22 49 23 78 2z m215
5 c24 -11 47 -47 47 -73 0 -7 -9 -25 -21 -40 -37 -47 -116 -32 -134 25 -11 33
3 67 33 83 33 18 44 19 75 5z m187 -9 c15 -15 20 -33 20 -75 0 -48 -2 -55 -20
-55 -17 0 -20 7 -20 49 0 56 -19 82 -45 61 -10 -8 -15 -30 -15 -61 0 -42 -3
-49 -20 -49 -18 0 -20 7 -20 69 l0 70 33 4 c17 2 40 5 50 5 9 1 26 -7 37 -18z
m171 10 c17 0 19 -8 19 -69 l0 -69 -57 -1 c-71 0 -93 16 -93 70 0 48 39 84 84
75 15 -3 37 -6 47 -6z m264 -15 c14 -13 25 -33 25 -45 0 -18 -6 -20 -55 -20
-55 0 -70 -11 -39 -28 10 -6 27 -5 45 1 33 13 47 4 29 -18 -19 -22 -86 -19
-110 5 -43 43 -6 130 55 130 14 0 37 -11 50 -25z m236 15 c17 0 19 -8 19 -69
l0 -69 -57 -1 c-71 0 -93 16 -93 70 0 48 39 84 84 75 15 -3 37 -6 47 -6z m343
-11 c56 -44 23 -129 -51 -129 -49 0 -73 23 -73 71 0 42 35 79 75 79 12 0 34
-9 49 -21z m474 5 c12 -8 22 -19 22 -25 0 -13 -34 -11 -47 2 -11 11 -33 5 -33
-10 0 -5 14 -12 31 -17 40 -12 58 -37 43 -61 -15 -25 -92 -25 -108 -1 -14 23
0 35 24 20 11 -7 27 -12 35 -12 28 0 15 17 -25 33 -28 11 -40 21 -40 36 0 21
35 51 60 51 9 0 26 -7 38 -16z m175 -15 c42 -51 7 -119 -61 -119 -74 0 -103
79 -47 128 33 28 79 25 108 -9z m437 13 c18 -14 24 -32 28 -75 4 -56 4 -57
-22 -57 -25 0 -26 2 -26 55 0 41 -4 57 -16 62 -24 9 -36 -11 -42 -66 -4 -41
-8 -51 -23 -51 -17 0 -19 8 -19 69 l0 70 33 4 c17 2 39 5 48 5 9 1 27 -6 39
-16z m177 8 l25 0 -4 -91 c-3 -102 -14 -119 -77 -119 -32 0 -71 23 -71 42 0
12 27 10 50 -4 23 -15 53 -2 58 24 2 12 -4 14 -22 11 -40 -8 -72 4 -84 32 -18
39 -14 63 14 92 20 20 32 24 56 19 17 -3 42 -6 55 -6z m242 -15 c22 -21 5 -31
-31 -17 -39 14 -58 2 -58 -40 0 -33 23 -47 51 -30 20 13 49 16 49 5 0 -20 -37
-43 -68 -43 -48 0 -72 24 -72 71 0 68 81 102 129 54z m134 14 c24 -11 47 -47
47 -73 0 -7 -9 -25 -21 -40 -37 -47 -116 -32 -134 25 -11 33 3 67 33 83 33 18
44 19 75 5z m190 0 c9 0 33 2 53 3 48 3 64 -20 64 -89 0 -46 -3 -53 -20 -53
-17 0 -20 7 -20 49 0 52 -16 76 -44 65 -12 -5 -16 -19 -16 -60 0 -47 -2 -54
-20 -54 -17 0 -20 7 -20 49 0 52 -16 76 -44 65 -12 -5 -16 -19 -16 -60 0 -47
-2 -54 -20 -54 -18 0 -20 7 -20 69 l0 70 33 4 c17 2 41 2 52 0 11 -3 28 -5 38
-4z m271 -10 c30 -24 35 -72 10 -107 -11 -16 -25 -22 -54 -22 -36 0 -39 -2
-42 -32 -2 -22 -9 -34 -20 -36 -16 -3 -18 7 -18 102 l0 105 33 4 c17 2 39 5
48 5 9 1 28 -7 43 -19z m231 -4 c14 -13 25 -33 25 -45 0 -18 -6 -20 -55 -20
-55 0 -70 -11 -39 -28 10 -6 27 -5 45 1 33 13 47 4 29 -18 -19 -22 -86 -19
-110 5 -43 43 -6 130 55 130 14 0 37 -11 50 -25z m369 4 c30 -24 35 -72 10
-107 -11 -16 -25 -22 -54 -22 -36 0 -39 -2 -42 -32 -2 -22 -9 -34 -20 -36 -16
-3 -18 7 -18 102 l0 105 33 4 c17 2 39 5 48 5 9 1 28 -7 43 -19z m126 2 c0
-10 -9 -21 -20 -24 -17 -4 -20 -14 -20 -56 0 -44 -3 -51 -20 -51 -18 0 -20 7
-20 69 l0 70 33 4 c17 2 35 5 40 5 4 1 7 -6 7 -17z m123 8 c24 -11 47 -47 47
-73 0 -7 -9 -25 -21 -40 -37 -47 -116 -32 -134 25 -11 33 3 67 33 83 33 18 44
19 75 5z m421 -10 c15 -12 26 -30 26 -44 0 -22 -4 -24 -57 -27 -54 -3 -56 -4
-39 -20 13 -14 22 -15 36 -8 10 6 29 10 41 10 21 0 22 -1 4 -20 -20 -22 -73
-27 -105 -10 -24 13 -36 71 -20 100 22 41 74 50 114 19z m155 11 c12 -6 29 -5
49 2 25 10 34 9 56 -5 23 -16 26 -24 26 -77 0 -53 -2 -60 -20 -60 -18 0 -20 7
-20 54 0 41 -4 55 -16 60 -28 11 -44 -13 -44 -65 0 -42 -3 -49 -20 -49 -18 0
-20 7 -20 54 0 41 -4 55 -16 60 -28 11 -44 -13 -44 -65 0 -42 -3 -49 -20 -49
-18 0 -20 7 -20 69 l0 70 33 4 c17 2 38 5 45 5 7 1 21 -2 31 -8z m264 -12 l22
-23 -25 -3 c-13 -2 -26 1 -28 7 -5 16 -32 13 -32 -3 0 -8 15 -20 34 -26 39
-13 51 -33 36 -61 -15 -27 -80 -26 -105 1 -17 18 -17 20 -1 26 10 4 22 2 29
-5 13 -13 47 -15 47 -3 0 5 -18 16 -40 25 -32 12 -40 20 -40 42 0 45 66 59
103 23z m-10943 -58 c0 -63 -2 -70 -20 -70 -18 0 -20 7 -20 70 0 63 2 70 20
70 18 0 20 -7 20 -70z m629 30 c14 -46 25 -45 41 5 8 25 18 35 32 35 12 0 18
-5 15 -12 -59 -152 -82 -198 -99 -198 -16 0 -18 4 -11 23 13 37 8 79 -15 135
l-22 52 24 0 c18 0 25 -8 35 -40z m1501 -30 c0 -63 -2 -70 -20 -70 -18 0 -20
7 -20 70 0 63 2 70 20 70 18 0 20 -7 20 -70z m650 0 c0 -63 -2 -70 -20 -70
-18 0 -20 7 -20 70 0 63 2 70 20 70 18 0 20 -7 20 -70z m1582 18 c3 -49 5 -53
28 -53 23 0 25 4 28 53 3 44 6 52 23 52 17 0 19 -7 19 -70 l0 -70 -54 0 c-71
0 -86 15 -86 86 0 47 3 54 19 54 17 0 20 -8 23 -52z m1458 -18 c0 -63 -2 -70
-20 -70 -18 0 -20 7 -20 70 0 63 2 70 20 70 18 0 20 -7 20 -70z m1422 18 c3
-49 5 -53 28 -53 23 0 25 4 28 53 3 44 6 52 23 52 17 0 19 -7 19 -70 l0 -70
-54 0 c-71 0 -86 15 -86 86 0 47 3 54 19 54 17 0 20 -8 23 -52z m706 2 l15
-45 20 48 c14 34 25 47 39 47 15 0 18 -4 13 -17 -4 -10 -16 -42 -27 -70 -16
-44 -24 -53 -44 -53 -13 0 -24 2 -24 4 0 2 -11 34 -25 71 l-25 66 22 -3 c15
-2 26 -15 36 -48z m152 -20 c0 -63 -2 -70 -20 -70 -18 0 -20 7 -20 70 0 63 2
70 20 70 18 0 20 -7 20 -70z m1470 53 c10 -17 10 -17 20 0 10 16 50 25 50 11
0 -3 -9 -18 -19 -33 -20 -27 -20 -28 0 -60 24 -39 24 -41 -1 -41 -10 0 -25 10
-31 22 l-12 23 -10 -23 c-6 -12 -18 -22 -29 -22 -23 0 -22 2 1 41 20 32 20 33
0 60 -10 15 -19 30 -19 33 0 14 40 5 50 -11z m-12122 -400 c5 -17 -26 -29 -40
-15 -6 6 -7 15 -3 22 9 14 37 9 43 -7z m480 0 c5 -17 -26 -29 -40 -15 -6 6 -7
15 -3 22 9 14 37 9 43 -7z m990 0 c5 -17 -26 -29 -40 -15 -6 6 -7 15 -3 22 9
14 37 9 43 -7z m1082 -3 c0 -13 -7 -20 -20 -20 -13 0 -20 7 -20 20 0 13 7 20
20 20 13 0 20 -7 20 -20z m4350 0 c0 -13 -7 -20 -20 -20 -13 0 -20 7 -20 20 0
13 7 20 20 20 13 0 20 -7 20 -20z m1738 3 c5 -17 -26 -29 -40 -15 -6 6 -7 15
-3 22 9 14 37 9 43 -7z m1392 2 c0 -8 -4 -15 -10 -15 -5 0 -10 -7 -10 -15 0
-22 37 -18 43 5 3 11 13 20 22 20 9 0 19 -9 22 -20 4 -16 14 -20 43 -20 36 0
38 -2 47 -42 l9 -43 14 43 c10 33 18 42 35 42 18 0 24 -8 32 -42 l9 -43 13 43
c9 32 17 42 32 42 13 0 19 -5 16 -12 -2 -7 -13 -39 -23 -70 -14 -47 -22 -58
-39 -58 -18 0 -24 8 -32 43 l-9 42 -13 -43 c-10 -35 -16 -43 -33 -40 -16 2
-27 18 -42 63 -16 47 -25 60 -38 57 -24 -5 -26 -92 -3 -92 8 0 15 -7 15 -15 0
-10 -10 -15 -30 -15 -35 0 -50 27 -50 86 0 27 -4 34 -20 34 -18 0 -20 -7 -20
-60 0 -53 -2 -60 -20 -60 -18 0 -20 7 -20 59 0 38 -5 61 -12 65 -10 5 -10 7 0
12 6 3 12 13 12 23 0 9 5 22 12 29 17 17 48 15 48 -3z m-10860 -90 l0 -95 -57
0 c-70 0 -93 17 -93 71 0 48 39 84 82 75 25 -5 28 -2 28 19 0 18 5 25 20 25
19 0 20 -7 20 -95z m3050 0 c0 -88 -1 -95 -20 -95 -19 0 -20 7 -20 95 0 88 1
95 20 95 19 0 20 -7 20 -95z m1130 70 c0 -21 3 -24 28 -19 46 9 74 -22 80 -89
4 -56 4 -57 -22 -57 -25 0 -26 2 -26 55 0 41 -4 57 -16 62 -24 9 -36 -11 -42
-66 -4 -41 -8 -51 -23 -51 -17 0 -19 9 -19 95 0 88 1 95 20 95 15 0 20 -7 20
-25z m1880 -1 c0 -21 3 -24 21 -19 53 17 110 -44 90 -96 -14 -39 -33 -48 -94
-48 l-57 1 0 94 c0 87 1 94 20 94 15 0 20 -7 20 -26z m510 -21 c0 -46 1 -47
16 -25 9 13 26 22 40 22 l25 0 -27 -35 -27 -36 27 -27 c32 -35 33 -42 2 -42
-13 0 -30 10 -39 23 l-16 22 0 -22 c-1 -16 -7 -23 -21 -23 -19 0 -20 7 -20 95
0 88 1 95 20 95 17 0 20 -7 20 -47z m1020 -48 l0 -95 -57 0 c-70 0 -93 17 -93
71 0 48 39 84 82 75 25 -5 28 -2 28 19 0 18 5 25 20 25 19 0 20 -7 20 -95z
m2810 1 l0 -94 -60 -1 c-48 0 -65 4 -80 19 -28 28 -26 75 6 106 21 22 31 25
60 20 31 -6 34 -5 34 19 0 18 5 25 20 25 19 0 20 -7 20 -94z m1440 0 l0 -94
-57 -1 c-61 0 -80 9 -94 48 -20 52 37 113 90 96 18 -5 21 -2 21 19 0 19 5 26
20 26 19 0 20 -7 20 -94z m540 -1 c0 -88 -1 -95 -20 -95 -19 0 -20 7 -20 95 0
88 1 95 20 95 19 0 20 -7 20 -95z m1980 0 c0 -88 -1 -95 -20 -95 -19 0 -20 7
-20 95 0 88 1 95 20 95 19 0 20 -7 20 -95z m70 0 c0 -88 -1 -95 -20 -95 -19 0
-20 7 -20 95 0 88 1 95 20 95 19 0 20 -7 20 -95z m-13700 69 c0 -9 9 -18 20
-21 11 -3 20 -9 20 -13 0 -4 -9 -10 -20 -13 -15 -4 -20 -14 -20 -41 0 -25 6
-38 20 -46 29 -16 24 -30 -10 -30 -36 0 -47 19 -50 85 -4 84 -2 95 20 95 12 0
20 -7 20 -16z m1477 -4 c3 -11 12 -20 19 -20 8 0 14 -4 14 -10 0 -5 -7 -10
-15 -10 -11 0 -15 -12 -15 -45 0 -33 4 -45 15 -45 8 0 15 -7 15 -15 0 -18 -55
-21 -65 -4 -13 20 -22 124 -14 147 11 27 39 29 46 2z m1080 0 c3 -11 12 -20
19 -20 8 0 14 -4 14 -10 0 -5 -7 -10 -15 -10 -11 0 -15 -12 -15 -45 0 -33 4
-45 15 -45 8 0 15 -7 15 -15 0 -18 -55 -21 -65 -4 -13 20 -22 124 -14 147 11
27 39 29 46 2z m763 -70 c0 -83 -1 -90 -20 -90 -19 0 -20 7 -20 90 0 83 1 90
20 90 19 0 20 -7 20 -90z m1240 70 c0 -13 7 -20 20 -20 11 0 20 -4 20 -10 0
-5 -9 -10 -20 -10 -17 0 -20 -7 -20 -44 0 -35 4 -45 20 -49 30 -8 24 -27 -8
-27 -40 0 -52 17 -52 71 0 28 -5 50 -12 53 -10 5 -10 7 0 12 6 3 12 14 12 25
0 12 7 19 20 19 13 0 20 -7 20 -20z m8100 0 c0 -13 7 -20 20 -20 11 0 20 -4
20 -10 0 -5 -9 -10 -20 -10 -17 0 -20 -7 -20 -44 0 -35 4 -45 20 -49 30 -8 24
-27 -8 -27 -40 0 -52 17 -52 71 0 28 -5 50 -12 53 -10 5 -10 7 0 12 6 3 12 14
12 25 0 12 7 19 20 19 13 0 20 -7 20 -20z m-13754 -20 c23 0 24 -3 24 -69 l0
-69 -57 -1 c-64 0 -75 4 -92 36 -18 34 -13 62 15 90 20 20 32 24 56 19 17 -3
41 -6 54 -6z m169 -15 c20 -19 25 -34 25 -75 0 -43 -3 -50 -20 -50 -17 0 -20
7 -20 49 0 52 -16 76 -44 65 -12 -5 -16 -19 -16 -60 0 -47 -2 -54 -20 -54 -18
0 -20 7 -20 69 l0 70 33 4 c17 2 38 5 45 5 7 1 24 -9 37 -23z m403 9 c40 -28
15 -49 -27 -22 -40 25 -71 -41 -36 -76 16 -15 45 -12 45 5 0 5 9 9 20 9 11 0
20 -7 20 -15 0 -19 -31 -35 -69 -35 -66 0 -95 77 -46 125 28 29 61 32 93 9z
m130 -7 c2 -11 -3 -17 -16 -17 -21 0 -32 -25 -32 -77 0 -26 -4 -33 -20 -33
-18 0 -20 7 -20 69 l0 70 33 4 c44 5 51 3 55 -16z m116 11 c14 -6 28 -19 31
-30 4 -10 10 -18 15 -18 5 0 11 8 15 18 8 28 49 42 100 35 l45 -6 0 -67 0 -68
-57 -1 c-58 0 -93 17 -93 46 0 9 -16 13 -60 13 -61 0 -76 -11 -41 -30 13 -7
22 -7 26 0 3 5 18 10 32 10 25 0 26 0 8 -20 -23 -26 -86 -27 -107 -2 -23 27
-28 49 -17 80 15 45 58 61 103 40z m516 -6 c18 -14 24 -32 28 -75 4 -56 4 -57
-22 -57 -25 0 -26 2 -26 55 0 41 -4 57 -16 62 -24 9 -36 -11 -42 -66 -4 -41
-8 -51 -23 -51 -17 0 -19 8 -19 69 l0 70 33 4 c17 2 39 5 48 5 9 1 27 -6 39
-16z m177 8 l25 0 -4 -91 c-3 -102 -14 -119 -77 -119 -32 0 -71 23 -71 42 0
12 27 10 50 -4 23 -15 53 -2 58 24 2 12 -4 14 -22 11 -40 -8 -72 4 -84 32 -18
39 -14 63 14 92 20 20 32 24 56 19 17 -3 42 -6 55 -6z m303 -8 c18 -14 24 -32
28 -75 4 -56 4 -57 -22 -57 -25 0 -26 2 -26 55 0 41 -4 57 -16 62 -24 9 -36
-11 -42 -66 -4 -41 -8 -51 -23 -51 -17 0 -19 8 -19 69 l0 70 33 4 c17 2 39 5
48 5 9 1 27 -6 39 -16z m168 2 c19 -13 22 -24 22 -75 0 -52 -2 -59 -20 -59
-18 0 -20 7 -20 54 0 41 -4 55 -16 60 -28 11 -44 -13 -44 -65 0 -42 -3 -49
-20 -49 -18 0 -20 7 -20 69 l0 70 33 4 c17 2 39 5 47 5 9 1 26 -5 38 -14z
m155 5 c24 -11 47 -47 47 -73 0 -7 -9 -25 -21 -40 -37 -47 -116 -32 -134 25
-11 33 3 67 33 83 33 18 44 19 75 5z m338 1 c17 0 19 -8 19 -69 l0 -69 -57 -1
c-61 0 -80 9 -94 48 -20 52 27 105 85 96 16 -3 37 -5 47 -5z m462 -1 c23 -10
47 -46 47 -69 0 -6 -25 -10 -55 -10 -56 0 -70 -11 -36 -30 13 -7 22 -7 26 0 3
5 18 10 32 10 25 0 26 0 8 -20 -23 -26 -86 -27 -107 -2 -23 27 -28 49 -17 80
15 44 58 61 102 41z m230 -11 l22 -23 -25 -3 c-13 -2 -26 1 -28 7 -5 16 -32
13 -32 -3 0 -8 15 -20 34 -26 39 -13 51 -33 36 -61 -15 -27 -80 -26 -105 1
-17 18 -17 20 -1 26 10 4 22 2 29 -5 13 -13 47 -15 47 -3 0 5 -18 16 -40 25
-32 12 -40 20 -40 42 0 45 66 59 103 23z m140 11 c24 -11 47 -47 47 -73 0 -7
-9 -25 -21 -40 -37 -47 -116 -32 -134 25 -11 33 3 67 33 83 33 18 44 19 75 5z
m581 -10 c56 -44 23 -129 -51 -129 -49 0 -73 23 -73 71 0 42 35 79 75 79 12 0
34 -9 49 -21z m166 3 c18 -14 24 -32 28 -75 4 -56 4 -57 -22 -57 -25 0 -26 2
-26 55 0 41 -4 57 -16 62 -24 9 -36 -11 -42 -66 -4 -41 -8 -51 -23 -51 -17 0
-19 8 -19 69 l0 70 33 4 c17 2 39 5 48 5 9 1 27 -6 39 -16z m153 -4 l22 -23
-25 -3 c-13 -2 -26 1 -28 7 -5 16 -32 13 -32 -3 0 -8 15 -20 34 -26 39 -13 51
-33 36 -61 -15 -27 -80 -26 -105 1 -17 18 -17 20 -1 26 10 4 22 2 29 -5 13
-13 47 -15 47 -3 0 5 -18 16 -40 25 -32 12 -40 20 -40 42 0 45 66 59 103 23z
m598 12 c17 0 19 -8 19 -69 l0 -69 -57 -1 c-61 0 -80 9 -94 48 -20 52 27 105
85 96 16 -3 37 -5 47 -5z m314 -15 c14 -13 25 -33 25 -45 0 -18 -6 -20 -55
-20 -55 0 -70 -11 -39 -28 10 -6 27 -5 45 1 33 13 47 4 29 -18 -19 -22 -86
-19 -110 5 -43 43 -6 130 55 130 14 0 37 -11 50 -25z m236 15 c17 0 19 -8 19
-69 l0 -69 -57 -1 c-71 0 -93 16 -93 70 0 48 39 84 84 75 15 -3 37 -6 47 -6z
m203 0 c14 -5 26 -16 26 -25 0 -18 -31 -20 -48 -3 -9 9 -15 9 -24 0 -9 -9 -2
-15 28 -28 36 -15 53 -30 54 -46 0 -17 -35 -38 -65 -38 -34 0 -70 24 -60 41 9
14 31 11 45 -5 6 -8 18 -12 26 -9 19 7 9 18 -36 41 -42 21 -47 35 -21 61 23
23 38 26 75 11z m234 -13 c2 -11 -3 -17 -16 -17 -21 0 -32 -25 -32 -77 0 -26
-4 -33 -20 -33 -18 0 -20 7 -20 69 l0 70 33 4 c44 5 51 3 55 -16z m145 -8 c42
-51 7 -119 -61 -119 -74 0 -103 79 -47 128 33 28 79 25 108 -9z m157 11 c15
-15 20 -33 20 -75 0 -48 -2 -55 -20 -55 -17 0 -20 7 -20 49 0 56 -19 82 -45
61 -10 -8 -15 -30 -15 -61 0 -42 -3 -49 -20 -49 -18 0 -20 7 -20 69 l0 70 33
4 c17 2 40 5 50 5 9 1 26 -7 37 -18z m171 10 c17 0 19 -9 19 -87 0 -103 -12
-123 -72 -123 -26 0 -45 7 -60 23 l-23 22 24 3 c13 2 27 -2 31 -8 12 -19 55
-8 58 16 3 18 -1 20 -33 16 -48 -6 -75 19 -75 69 0 48 39 84 84 75 15 -3 37
-6 47 -6z m420 0 c17 0 19 -8 19 -69 l0 -69 -57 -1 c-71 0 -93 16 -93 70 0 48
39 84 84 75 15 -3 37 -6 47 -6z m157 -6 c12 -8 22 -19 22 -25 0 -12 -37 -12
-45 1 -20 32 -61 -14 -51 -56 7 -26 43 -33 63 -13 6 6 18 9 27 7 15 -3 15 -5
1 -25 -21 -30 -86 -32 -115 -3 -62 62 25 165 98 114z m319 6 l25 0 -4 -91 c-3
-102 -14 -119 -77 -119 -32 0 -71 23 -71 42 0 12 27 10 50 -4 23 -15 53 -2 58
24 2 12 -4 14 -22 11 -40 -8 -72 4 -84 32 -18 39 -14 63 14 92 20 20 32 24 56
19 17 -3 42 -6 55 -6z m133 -9 c0 -10 -9 -21 -20 -24 -17 -4 -20 -14 -20 -56
0 -44 -3 -51 -20 -51 -18 0 -20 7 -20 69 l0 70 33 4 c17 2 35 5 40 5 4 1 7 -6
7 -17z m134 -2 c56 -44 23 -129 -51 -129 -49 0 -73 23 -73 71 0 42 35 79 75
79 12 0 34 -9 49 -21z m336 1 c15 -15 20 -33 20 -75 0 -48 -2 -55 -20 -55 -17
0 -20 7 -20 49 0 56 -19 82 -45 61 -10 -8 -15 -30 -15 -61 0 -42 -3 -49 -20
-49 -18 0 -20 7 -20 69 l0 70 33 4 c17 2 40 5 50 5 9 1 26 -7 37 -18z m480 0
c15 -15 20 -33 20 -75 0 -48 -2 -55 -20 -55 -17 0 -20 7 -20 49 0 56 -19 82
-45 61 -10 -8 -15 -30 -15 -61 0 -42 -3 -49 -20 -49 -18 0 -20 7 -20 69 l0 70
33 4 c17 2 40 5 50 5 9 1 26 -7 37 -18z m245 -5 c53 -52 18 -130 -56 -123
l-39 4 0 -39 c0 -31 -3 -38 -17 -35 -16 3 -18 17 -21 105 l-3 102 38 4 c21 2
46 4 56 5 10 1 29 -9 42 -23z m125 6 c0 -10 -9 -21 -20 -24 -17 -4 -20 -14
-20 -56 0 -44 -3 -51 -20 -51 -18 0 -20 7 -20 69 l0 70 33 4 c17 2 35 5 40 5
4 1 7 -6 7 -17z m124 8 c27 -13 49 -60 39 -87 -13 -36 -36 -52 -75 -52 -45 0
-78 28 -78 66 0 64 55 99 114 73z m187 1 c17 0 19 -9 19 -87 0 -103 -12 -123
-72 -123 -26 0 -45 7 -60 23 l-23 22 24 3 c13 2 27 -2 31 -8 12 -19 55 -8 58
16 3 18 -1 20 -33 16 -48 -6 -75 19 -75 69 0 48 39 84 84 75 15 -3 37 -6 47
-6z m129 -9 c0 -10 -9 -21 -20 -24 -17 -4 -20 -14 -20 -56 0 -44 -3 -51 -20
-51 -18 0 -20 7 -20 69 l0 70 33 4 c17 2 35 5 40 5 4 1 7 -6 7 -17z m146 9
c23 0 24 -3 24 -69 l0 -69 -57 -1 c-64 0 -75 4 -92 36 -18 34 -13 62 15 90 20
20 32 24 56 19 17 -3 41 -6 54 -6z m177 -1 c9 0 33 2 53 3 48 3 64 -20 64 -89
0 -46 -3 -53 -20 -53 -17 0 -20 7 -20 49 0 52 -16 76 -44 65 -12 -5 -16 -19
-16 -60 0 -47 -2 -54 -20 -54 -17 0 -20 7 -20 49 0 52 -16 76 -44 65 -12 -5
-16 -19 -16 -60 0 -47 -2 -54 -20 -54 -18 0 -20 7 -20 69 l0 70 33 4 c17 2 41
2 52 0 11 -3 28 -5 38 -4z m270 0 c9 0 33 2 53 3 48 3 64 -20 64 -89 0 -46 -3
-53 -20 -53 -17 0 -20 7 -20 49 0 52 -16 76 -44 65 -12 -5 -16 -19 -16 -60 0
-47 -2 -54 -20 -54 -17 0 -20 7 -20 49 0 52 -16 76 -44 65 -12 -5 -16 -19 -16
-60 0 -47 -2 -54 -20 -54 -18 0 -20 7 -20 69 l0 70 33 4 c17 2 41 2 52 0 11
-3 28 -5 38 -4z m327 -7 c18 -14 24 -32 28 -75 4 -56 4 -57 -22 -57 -25 0 -26
2 -26 55 0 41 -4 57 -16 62 -24 9 -36 -11 -42 -66 -4 -41 -8 -51 -23 -51 -17
0 -19 8 -19 69 l0 70 33 4 c17 2 39 5 48 5 9 1 27 -6 39 -16z m177 8 l25 0 -4
-91 c-3 -102 -14 -119 -77 -119 -32 0 -71 23 -71 42 0 12 27 10 50 -4 23 -15
53 -2 58 24 2 12 -4 14 -22 11 -40 -8 -72 4 -84 32 -18 39 -14 63 14 92 20 20
32 24 56 19 17 -3 42 -6 55 -6z m244 0 c17 0 19 -8 19 -69 l0 -69 -57 -1 c-61
0 -80 9 -94 48 -20 52 27 105 85 96 16 -3 37 -5 47 -5z m167 -6 c19 -13 22
-24 22 -75 0 -52 -2 -59 -20 -59 -18 0 -20 7 -20 54 0 41 -4 55 -16 60 -28 11
-44 -13 -44 -65 0 -42 -3 -49 -20 -49 -18 0 -20 7 -20 69 l0 70 33 4 c17 2 39
5 47 5 9 1 26 -5 38 -14z m395 -6 l22 -23 -25 -3 c-13 -2 -26 1 -28 7 -5 16
-32 13 -32 -3 0 -8 15 -20 34 -26 39 -13 51 -33 36 -61 -15 -27 -80 -26 -105
1 -17 18 -17 20 -1 26 10 4 22 2 29 -5 13 -13 47 -15 47 -3 0 5 -18 16 -40 25
-32 12 -40 20 -40 42 0 45 66 59 103 23z m140 11 c24 -11 47 -47 47 -73 0 -7
-9 -25 -21 -40 -37 -47 -116 -32 -134 25 -11 33 3 67 33 83 33 18 44 19 75 5z
m583 1 c23 0 24 -3 24 -69 l0 -69 -57 -1 c-64 0 -75 4 -92 36 -18 34 -13 62
15 90 20 20 32 24 56 19 17 -3 41 -6 54 -6z m134 -9 c0 -10 -9 -21 -20 -24
-17 -4 -20 -14 -20 -56 0 -44 -3 -51 -20 -51 -18 0 -20 7 -20 69 l0 70 33 4
c17 2 35 5 40 5 4 1 7 -6 7 -17z m137 -4 c6 -6 15 -24 18 -39 l7 -28 -56 0
c-56 0 -71 -11 -38 -29 11 -6 24 -6 35 1 10 5 25 8 34 6 31 -6 -15 -38 -54
-38 -49 0 -73 24 -73 71 0 49 39 84 85 75 16 -4 35 -12 42 -19z m397 2 c15
-12 26 -30 26 -44 0 -22 -4 -24 -57 -27 -54 -3 -56 -4 -39 -20 13 -14 22 -15
36 -8 10 6 29 10 41 10 21 0 22 -1 4 -20 -20 -22 -73 -27 -105 -10 -24 13 -36
71 -20 100 22 41 74 50 114 19z m311 -4 c14 -13 25 -33 25 -45 0 -18 -6 -20
-55 -20 -55 0 -70 -11 -39 -28 10 -6 27 -5 45 1 33 13 47 4 29 -18 -19 -22
-86 -19 -110 5 -43 43 -6 130 55 130 14 0 37 -11 50 -25z m219 14 c27 -13 49
-60 39 -87 -13 -36 -36 -52 -75 -52 -45 0 -78 28 -78 66 0 64 55 99 114 73z
m191 -14 c53 -52 18 -130 -56 -123 l-39 4 0 -39 c0 -31 -3 -38 -17 -35 -16 3
-18 17 -21 105 l-3 102 38 4 c21 2 46 4 56 5 10 1 29 -9 42 -23z m175 14 c8 0
27 3 42 6 43 11 68 -23 68 -90 0 -48 -2 -55 -20 -55 -17 0 -20 7 -20 49 0 56
-19 82 -45 61 -10 -8 -15 -30 -15 -61 0 -42 -3 -49 -20 -49 -17 0 -20 7 -20
49 0 56 -19 82 -45 61 -10 -8 -15 -30 -15 -61 0 -42 -3 -49 -20 -49 -18 0 -20
7 -20 69 l0 70 33 4 c17 2 43 2 57 0 14 -2 32 -4 40 -4z m255 -14 c14 -13 25
-33 25 -45 0 -18 -6 -20 -55 -20 -55 0 -70 -11 -39 -28 10 -6 27 -5 45 1 33
13 47 4 29 -18 -19 -22 -86 -19 -110 5 -43 43 -6 130 55 130 14 0 37 -11 50
-25z m165 5 c15 -15 20 -33 20 -75 0 -48 -2 -55 -20 -55 -17 0 -20 7 -20 49 0
56 -19 82 -45 61 -10 -8 -15 -30 -15 -61 0 -42 -3 -49 -20 -49 -18 0 -20 7
-20 69 l0 70 33 4 c17 2 40 5 50 5 9 1 26 -7 37 -18z m396 10 c23 0 24 -3 24
-69 l0 -69 -60 -1 c-48 0 -65 4 -80 19 -47 47 -2 139 62 126 17 -3 41 -6 54
-6z m142 -6 c12 -8 22 -19 22 -25 0 -13 -34 -11 -47 2 -11 11 -33 5 -33 -10 0
-5 14 -12 31 -17 40 -12 58 -37 43 -61 -15 -25 -92 -25 -108 -1 -14 23 0 35
24 20 11 -7 27 -12 35 -12 28 0 15 17 -25 33 -28 11 -40 21 -40 36 0 21 35 51
60 51 9 0 26 -7 38 -16z m425 5 c23 -10 47 -46 47 -69 0 -6 -25 -10 -55 -10
-56 0 -70 -11 -36 -30 13 -7 22 -7 26 0 3 5 18 10 32 10 25 0 26 0 8 -20 -23
-26 -86 -27 -107 -2 -23 27 -28 49 -17 80 15 44 58 61 102 41z m-13433 -69 c0
-63 -2 -70 -20 -70 -18 0 -20 7 -20 70 0 63 2 70 20 70 18 0 20 -7 20 -70z
m480 0 c0 -63 -2 -70 -20 -70 -18 0 -20 7 -20 70 0 63 2 70 20 70 18 0 20 -7
20 -70z m568 20 l15 -45 20 48 c14 34 25 47 39 47 15 0 18 -4 13 -17 -4 -10
-16 -42 -27 -70 -16 -44 -24 -53 -44 -53 -13 0 -24 2 -24 4 0 2 -11 34 -25 71
l-25 66 22 -3 c15 -2 26 -15 36 -48z m422 -20 c0 -63 -2 -70 -20 -70 -18 0
-20 7 -20 70 0 63 2 70 20 70 18 0 20 -7 20 -70z m68 20 l15 -45 20 48 c14 34
25 47 39 47 15 0 18 -4 13 -17 -4 -10 -16 -42 -27 -70 -16 -44 -24 -53 -44
-53 -13 0 -24 2 -24 4 0 2 -11 34 -25 71 l-25 66 22 -3 c15 -2 26 -15 36 -48z
m742 8 c0 -52 11 -71 36 -66 15 2 20 14 22 56 3 44 6 52 23 52 17 0 19 -7 19
-70 l0 -70 -54 0 c-67 0 -86 20 -86 92 0 41 3 48 20 48 17 0 20 -7 20 -42z
m270 -28 c0 -63 -2 -70 -20 -70 -18 0 -20 7 -20 70 0 63 2 70 20 70 18 0 20
-7 20 -70z m1150 25 c7 -24 16 -43 19 -40 4 2 13 22 21 44 9 28 19 41 32 41
23 0 23 -3 -5 -75 -19 -48 -28 -61 -48 -63 -21 -2 -27 4 -47 60 -27 76 -27 78
-3 78 13 0 22 -12 31 -45z m2622 -7 c3 -49 5 -53 28 -53 23 0 25 4 28 53 3 44
6 52 23 52 17 0 19 -7 19 -70 l0 -70 -54 0 c-71 0 -86 15 -86 86 0 47 3 54 19
54 17 0 20 -8 23 -52z m578 -18 c0 -63 -2 -70 -20 -70 -18 0 -20 7 -20 70 0
63 2 70 20 70 18 0 20 -7 20 -70z m1730 0 c0 -63 -2 -70 -20 -70 -18 0 -20 7
-20 70 0 63 2 70 20 70 18 0 20 -7 20 -70z m2610 33 c18 -57 26 -59 40 -9 10
37 17 46 35 46 l23 0 -27 -70 c-23 -62 -29 -70 -49 -68 -19 2 -29 16 -48 62
-29 72 -29 76 -5 76 14 0 23 -11 31 -37z m1917 -5 l9 -43 14 43 c10 33 18 42
35 42 18 0 24 -8 32 -42 l9 -43 13 43 c9 32 17 42 32 42 13 0 19 -5 16 -12 -2
-7 -13 -39 -23 -70 -14 -47 -22 -58 -39 -58 -18 0 -24 8 -32 43 l-9 42 -13
-43 c-10 -35 -16 -43 -33 -40 -16 2 -27 19 -44 71 l-23 67 23 0 c19 0 25 -8
33 -42z m-10069 -81 c2 -11 -3 -17 -17 -17 -23 0 -35 15 -26 31 10 15 39 6 43
-14z m9562 16 c0 -22 -26 -73 -37 -73 -15 0 -17 19 -3 54 8 23 40 38 40 19z
m-11860 -318 c0 -8 -4 -15 -10 -15 -5 0 -10 -7 -10 -15 0 -8 7 -15 15 -15 8 0
15 -4 15 -10 0 -5 -7 -10 -15 -10 -12 0 -15 -13 -15 -60 0 -53 -2 -60 -20 -60
-18 0 -20 7 -20 59 0 38 -5 61 -12 65 -10 5 -10 7 0 12 6 3 12 13 12 23 0 9 5
22 12 29 17 17 48 15 48 -3z m1560 -5 c0 -13 -7 -20 -20 -20 -13 0 -20 7 -20
20 0 13 7 20 20 20 13 0 20 -7 20 -20z m6420 5 c0 -8 -4 -15 -10 -15 -5 0 -10
-7 -10 -15 0 -22 37 -18 43 5 3 11 13 20 22 20 9 0 19 -9 22 -20 4 -15 14 -20
39 -20 31 0 34 -3 45 -42 l12 -43 12 40 c9 32 16 40 36 40 19 0 25 -7 33 -40
l10 -40 11 40 c8 28 18 41 32 43 l21 3 -22 -70 c-18 -59 -25 -71 -43 -71 -16
0 -23 8 -28 30 -10 43 -23 46 -31 5 -5 -28 -11 -35 -29 -35 -18 0 -25 10 -40
60 -14 45 -23 60 -37 60 -15 0 -18 -8 -18 -45 0 -33 4 -45 15 -45 8 0 15 -7
15 -15 0 -10 -10 -15 -30 -15 -35 0 -50 27 -50 86 0 27 -4 34 -20 34 -18 0
-20 -7 -20 -60 0 -53 -2 -60 -20 -60 -18 0 -20 7 -20 59 0 38 -5 61 -12 65
-10 5 -10 7 0 12 6 3 12 13 12 23 0 9 5 22 12 29 17 17 48 15 48 -3z m1358 -2
c5 -17 -26 -29 -40 -15 -6 6 -7 15 -3 22 9 14 37 9 43 -7z m652 -3 c0 -13 -7
-20 -20 -20 -13 0 -20 7 -20 20 0 13 7 20 20 20 13 0 20 -7 20 -20z m-11680
-37 l0 -46 23 21 c13 12 34 22 47 22 l24 0 -27 -28 c-15 -15 -27 -32 -27 -36
0 -4 12 -23 26 -42 l26 -34 -25 0 c-16 0 -33 10 -46 28 l-20 27 -1 -27 c0 -21
-5 -28 -20 -28 -19 0 -20 7 -20 95 0 88 1 95 20 95 17 0 20 -7 20 -47z m690
-48 c0 -88 -1 -95 -20 -95 -19 0 -20 7 -20 95 0 88 1 95 20 95 19 0 20 -7 20
-95z m340 1 l0 -94 -57 -1 c-64 0 -75 4 -92 36 -18 34 -13 62 15 89 21 22 31
25 60 20 31 -6 34 -5 34 19 0 18 5 25 20 25 19 0 20 -7 20 -94z m2700 -1 c0
-88 -1 -95 -20 -95 -19 0 -20 7 -20 95 0 88 1 95 20 95 19 0 20 -7 20 -95z
m1940 70 c0 -22 3 -25 24 -19 42 10 76 -33 76 -96 0 -43 -3 -50 -20 -50 -17 0
-20 7 -20 49 0 52 -16 76 -44 65 -12 -5 -16 -19 -16 -60 0 -47 -2 -54 -20 -54
-19 0 -20 7 -20 95 0 88 1 95 20 95 15 0 20 -7 20 -25z m1010 0 c0 -21 3 -24
28 -19 46 9 74 -22 80 -89 4 -56 4 -57 -22 -57 -25 0 -26 2 -26 55 0 41 -4 57
-16 62 -24 9 -36 -11 -42 -66 -4 -41 -8 -51 -23 -51 -17 0 -19 9 -19 95 0 88
1 95 20 95 15 0 20 -7 20 -25z m5990 -69 l0 -94 -57 -1 c-64 0 -75 4 -92 36
-18 34 -13 62 15 89 21 22 31 25 60 20 31 -6 34 -5 34 19 0 18 5 25 20 25 19
0 20 -7 20 -94z m-6305 64 c10 -11 28 -20 40 -20 17 0 25 -9 34 -40 14 -46 25
-45 41 5 10 29 16 35 41 35 22 0 29 5 29 20 0 13 7 20 19 20 10 0 21 -9 24
-20 3 -11 12 -20 21 -20 23 0 20 -17 -4 -23 -15 -4 -20 -14 -20 -41 0 -25 6
-38 20 -46 29 -16 25 -30 -9 -30 -37 0 -44 11 -51 75 -3 28 -9 50 -14 50 -5 0
-27 -44 -50 -97 -31 -76 -44 -98 -59 -98 -14 0 -17 5 -12 18 16 43 15 71 -9
127 -14 33 -25 52 -26 43 0 -23 -38 -48 -72 -48 -25 0 -28 -3 -28 -35 0 -28
-4 -35 -20 -35 -19 0 -20 7 -20 90 l0 90 53 0 c41 0 58 -5 72 -20z m1015 -51
c0 -89 -10 -109 -55 -109 -32 0 -65 21 -65 41 0 12 37 12 45 -1 3 -5 13 -10
21 -10 11 0 14 16 14 75 0 68 2 75 20 75 18 0 20 -7 20 -71z m810 51 c0 -13 7
-20 20 -20 11 0 20 -4 20 -10 0 -5 -9 -10 -20 -10 -17 0 -20 -7 -20 -44 0 -35
4 -45 20 -49 30 -8 24 -27 -8 -27 -40 0 -52 17 -52 71 0 28 -5 50 -12 53 -10
5 -10 7 0 12 6 3 12 14 12 25 0 12 7 19 20 19 13 0 20 -7 20 -20z m596 -72
l31 -88 -23 0 c-15 0 -24 6 -24 15 0 11 -11 15 -40 15 -29 0 -40 -4 -40 -15 0
-8 -9 -15 -20 -15 -25 0 -25 4 -1 71 38 107 40 111 63 107 19 -2 29 -19 54
-90z m608 76 c9 -8 16 -20 16 -25 0 -12 -37 -12 -45 1 -10 15 -45 12 -45 -5 0
-8 20 -23 45 -34 39 -17 45 -24 45 -50 0 -20 -7 -34 -19 -41 -41 -21 -111 -5
-111 25 0 8 9 15 20 15 11 0 20 -4 20 -10 0 -5 11 -10 25 -10 43 0 32 33 -17
50 -35 12 -44 20 -46 43 -2 16 2 35 9 43 15 19 84 18 103 -2z m1216 1 c0 -10
-11 -15 -35 -15 -28 0 -35 -4 -35 -19 0 -15 8 -21 32 -23 46 -4 49 -28 4 -28
-32 0 -36 -3 -36 -25 0 -22 4 -25 35 -25 24 0 35 -5 35 -15 0 -12 -13 -15 -55
-15 l-55 0 0 90 0 90 55 0 c42 0 55 -3 55 -15z m1690 -5 c0 -13 7 -20 20 -20
11 0 20 -4 20 -10 0 -5 -9 -10 -20 -10 -17 0 -20 -7 -20 -44 0 -35 4 -45 20
-49 30 -8 24 -27 -8 -27 -40 0 -52 17 -52 71 0 28 -5 50 -12 53 -10 5 -10 7 0
12 6 3 12 14 12 25 0 12 7 19 20 19 13 0 20 -7 20 -20z m770 0 c0 -13 7 -20
20 -20 11 0 20 -4 20 -10 0 -5 -9 -10 -20 -10 -17 0 -20 -7 -20 -42 0 -36 4
-45 25 -55 20 -9 25 -8 25 3 0 8 9 14 20 14 24 0 24 -1 6 -45 -16 -38 -48 -50
-39 -15 4 17 0 20 -24 20 -41 0 -53 17 -53 71 0 28 -5 50 -12 53 -10 5 -10 7
0 12 6 3 12 14 12 25 0 12 7 19 20 19 13 0 20 -7 20 -20z m220 -70 c0 -83 -1
-90 -20 -90 -19 0 -20 7 -20 90 0 83 1 90 20 90 19 0 20 -7 20 -90z m-13584
50 c23 0 24 -3 24 -69 l0 -69 -57 -1 c-64 0 -75 4 -92 36 -18 34 -13 62 15 90
20 20 32 24 56 19 17 -3 41 -6 54 -6z m142 -6 c12 -8 22 -19 22 -25 0 -13 -34
-11 -48 3 -9 9 -15 9 -23 1 -9 -9 -2 -16 27 -30 42 -20 55 -51 30 -72 -20 -17
-87 -10 -100 11 -14 23 0 35 24 20 23 -14 50 -16 50 -3 0 5 -16 15 -35 21 -44
15 -56 47 -25 72 27 22 49 23 78 2z m377 -9 c20 -19 25 -34 25 -75 0 -43 -3
-50 -20 -50 -17 0 -20 7 -20 49 0 52 -16 76 -44 65 -12 -5 -16 -19 -16 -60 0
-47 -2 -54 -20 -54 -18 0 -20 7 -20 69 l0 70 33 4 c17 2 38 5 45 5 7 1 24 -9
37 -23z m178 -6 c42 -51 7 -119 -61 -119 -74 0 -103 79 -47 128 33 28 79 25
108 -9z m431 10 c15 -12 26 -30 26 -44 0 -22 -4 -24 -57 -27 -54 -3 -56 -4
-39 -20 13 -14 22 -15 36 -8 10 6 29 10 41 10 21 0 22 -1 4 -20 -20 -22 -73
-27 -105 -10 -24 13 -36 71 -20 100 22 41 74 50 114 19z m352 11 c23 0 24 -3
24 -79 0 -97 -20 -131 -77 -131 -34 0 -73 22 -73 42 0 11 38 10 45 -2 10 -17
44 -11 55 9 14 27 14 27 -29 23 -75 -7 -109 71 -55 125 20 20 32 24 56 19 17
-3 41 -6 54 -6z m147 -1 c23 -10 47 -46 47 -69 0 -6 -25 -10 -55 -10 -56 0
-70 -11 -36 -30 13 -7 22 -7 26 0 3 5 18 10 32 10 25 0 26 0 8 -20 -23 -26
-86 -27 -107 -2 -23 27 -28 49 -17 80 15 44 58 61 102 41z m230 0 c24 -11 47
-47 47 -73 0 -7 -9 -25 -21 -40 -37 -47 -116 -32 -134 25 -11 33 3 67 33 83
33 18 44 19 75 5z m331 0 c32 -15 50 -57 37 -90 -14 -38 -37 -52 -76 -47 -35
4 -35 4 -35 -34 0 -31 -4 -38 -20 -38 -19 0 -20 7 -20 104 l0 105 33 4 c17 2
37 5 44 5 7 1 23 -3 37 -9z m146 -8 c0 -10 -9 -21 -20 -24 -17 -4 -20 -14 -20
-56 0 -44 -3 -51 -20 -51 -18 0 -20 7 -20 69 l0 70 33 4 c17 2 35 5 40 5 4 1
7 -6 7 -17z m134 -2 c56 -44 23 -129 -51 -129 -49 0 -73 23 -73 71 0 42 35 79
75 79 12 0 34 -9 49 -21z m173 11 l25 0 -4 -91 c-3 -102 -14 -119 -77 -119
-32 0 -71 23 -71 42 0 12 27 10 50 -4 23 -15 53 -2 58 24 2 12 -4 14 -22 11
-40 -8 -72 4 -84 32 -18 39 -14 63 14 92 20 20 32 24 56 19 17 -3 42 -6 55 -6z
m133 -9 c0 -10 -9 -21 -20 -24 -17 -4 -20 -14 -20 -56 0 -44 -3 -51 -20 -51
-18 0 -20 7 -20 69 l0 70 33 4 c17 2 35 5 40 5 4 1 7 -6 7 -17z m141 9 c17 0
19 -8 19 -69 l0 -69 -57 -1 c-71 0 -93 16 -93 70 0 48 39 84 84 75 15 -3 37
-6 47 -6z m158 0 c12 -6 29 -5 49 2 25 10 34 9 56 -5 23 -16 26 -24 26 -77 0
-53 -2 -60 -20 -60 -18 0 -20 7 -20 54 0 41 -4 55 -16 60 -28 11 -44 -13 -44
-65 0 -42 -3 -49 -20 -49 -18 0 -20 7 -20 54 0 41 -4 55 -16 60 -28 11 -44
-13 -44 -65 0 -42 -3 -49 -20 -49 -18 0 -20 7 -20 69 l0 70 33 4 c17 2 38 5
45 5 7 1 21 -2 31 -8z m270 0 c12 -6 29 -5 49 2 25 10 34 9 56 -5 23 -16 26
-24 26 -77 0 -53 -2 -60 -20 -60 -18 0 -20 7 -20 54 0 41 -4 55 -16 60 -28 11
-44 -13 -44 -65 0 -42 -3 -49 -20 -49 -18 0 -20 7 -20 54 0 41 -4 55 -16 60
-28 11 -44 -13 -44 -65 0 -42 -3 -49 -20 -49 -18 0 -20 7 -20 69 l0 70 33 4
c17 2 38 5 45 5 7 1 21 -2 31 -8z m351 -10 c15 -15 20 -33 20 -75 0 -48 -2
-55 -20 -55 -17 0 -20 7 -20 49 0 56 -19 82 -45 61 -10 -8 -15 -30 -15 -61 0
-42 -3 -49 -20 -49 -18 0 -20 7 -20 69 l0 70 33 4 c17 2 40 5 50 5 9 1 26 -7
37 -18z m171 10 c17 0 19 -9 19 -87 0 -103 -12 -123 -72 -123 -26 0 -45 7 -60
23 l-23 22 24 3 c13 2 27 -2 31 -8 12 -19 55 -8 58 16 3 18 -1 20 -33 16 -48
-6 -75 19 -75 69 0 48 39 84 84 75 15 -3 37 -6 47 -6z m315 0 c23 0 24 -3 24
-69 l0 -69 -60 -1 c-48 0 -65 4 -80 19 -47 47 -2 139 62 126 17 -3 41 -6 54
-6z m164 -8 c18 -14 24 -32 28 -75 4 -56 4 -57 -22 -57 -25 0 -26 2 -26 55 0
41 -4 57 -16 62 -24 9 -36 -11 -42 -66 -4 -41 -8 -51 -23 -51 -17 0 -19 8 -19
69 l0 70 33 4 c17 2 39 5 48 5 9 1 27 -6 39 -16z m177 8 l25 0 -4 -91 c-3
-102 -14 -119 -77 -119 -32 0 -71 23 -71 42 0 12 27 10 50 -4 23 -15 53 -2 58
24 2 12 -4 14 -22 11 -40 -8 -72 4 -84 32 -18 39 -14 63 14 92 20 20 32 24 56
19 17 -3 42 -6 55 -6z m344 0 c17 0 19 -8 19 -69 l0 -69 -57 -1 c-71 0 -93 16
-93 70 0 48 39 84 84 75 15 -3 37 -6 47 -6z m176 0 l25 0 -4 -91 c-3 -102 -14
-119 -77 -119 -32 0 -71 23 -71 42 0 12 27 10 50 -4 23 -15 53 -2 58 24 2 12
-4 14 -22 11 -40 -8 -72 4 -84 32 -18 39 -14 63 14 92 20 20 32 24 56 19 17
-3 42 -6 55 -6z m168 -15 c14 -13 25 -33 25 -45 0 -18 -6 -20 -55 -20 -55 0
-70 -11 -39 -28 10 -6 27 -5 45 1 33 13 47 4 29 -18 -19 -22 -86 -19 -110 5
-43 43 -6 130 55 130 14 0 37 -11 50 -25z m129 15 c14 -5 26 -16 26 -25 0 -18
-31 -20 -48 -3 -9 9 -15 9 -24 0 -9 -9 -2 -15 28 -28 36 -15 53 -30 54 -46 0
-17 -35 -38 -65 -38 -34 0 -70 24 -60 41 9 14 31 11 45 -5 6 -8 18 -12 26 -9
19 7 9 18 -36 41 -42 21 -47 35 -21 61 23 23 38 26 75 11z m214 -6 c12 -8 22
-19 22 -25 0 -13 -34 -11 -47 2 -11 11 -33 5 -33 -10 0 -5 14 -12 31 -17 40
-12 58 -37 43 -61 -15 -25 -92 -25 -108 -1 -14 23 0 35 24 20 11 -7 27 -12 35
-12 28 0 15 17 -25 33 -28 11 -40 21 -40 36 0 21 35 51 60 51 9 0 26 -7 38
-16z m320 0 c12 -8 22 -19 22 -25 0 -12 -37 -12 -45 1 -20 32 -61 -14 -51 -56
7 -26 43 -33 63 -13 6 6 18 9 27 7 15 -3 15 -5 1 -25 -21 -30 -86 -32 -115 -3
-62 62 25 165 98 114z m408 6 c23 0 24 -3 24 -69 l0 -69 -57 -1 c-64 0 -75 4
-92 36 -18 34 -13 62 15 90 20 20 32 24 56 19 17 -3 41 -6 54 -6z m142 -6 c12
-8 22 -19 22 -25 0 -13 -34 -11 -48 3 -9 9 -15 9 -23 1 -9 -9 -2 -16 27 -30
42 -20 55 -51 30 -72 -20 -17 -87 -10 -100 11 -14 23 0 35 24 20 23 -14 50
-16 50 -3 0 5 -16 15 -35 21 -44 15 -56 47 -25 72 27 22 49 23 78 2z m785 5
c24 -11 47 -47 47 -73 0 -7 -9 -25 -21 -40 -37 -47 -116 -32 -134 25 -11 33 3
67 33 83 33 18 44 19 75 5z m187 -9 c15 -15 20 -33 20 -75 0 -48 -2 -55 -20
-55 -17 0 -20 7 -20 49 0 31 -5 53 -15 61 -26 21 -45 -5 -45 -61 0 -42 -3 -49
-20 -49 -18 0 -20 7 -20 69 l0 70 33 4 c17 2 40 5 50 5 9 1 26 -7 37 -18z
m446 10 c23 0 24 -3 24 -69 l0 -69 -60 -1 c-48 0 -65 4 -80 19 -47 47 -2 139
62 126 17 -3 41 -6 54 -6z m325 0 c17 0 19 -8 19 -69 l0 -69 -57 -1 c-61 0
-80 9 -94 48 -20 52 27 105 85 96 16 -3 37 -5 47 -5z m236 -13 c6 -6 15 -24
18 -39 l7 -28 -56 0 c-56 0 -71 -11 -38 -29 11 -6 24 -6 35 1 10 5 25 8 34 6
31 -6 -15 -38 -54 -38 -49 0 -73 24 -73 71 0 49 39 84 85 75 16 -4 35 -12 42
-19z m241 7 c12 -8 22 -19 22 -25 0 -12 -37 -12 -45 1 -20 32 -61 -14 -51 -56
7 -26 43 -33 63 -13 6 6 18 9 27 7 15 -3 15 -5 1 -25 -21 -30 -86 -32 -115 -3
-62 62 25 165 98 114z m580 0 c12 -8 22 -19 22 -25 0 -13 -34 -11 -47 2 -11
11 -33 5 -33 -10 0 -5 14 -12 31 -17 40 -12 58 -37 43 -61 -15 -25 -92 -25
-108 -1 -14 23 0 35 24 20 11 -7 27 -12 35 -12 28 0 15 17 -25 33 -28 11 -40
21 -40 36 0 21 35 51 60 51 9 0 26 -7 38 -16z m238 6 c23 0 24 -3 24 -69 l0
-69 -60 -1 c-48 0 -65 4 -80 19 -47 47 -2 139 62 126 17 -3 41 -6 54 -6z m378
-1 c27 -13 49 -60 39 -87 -13 -36 -36 -52 -75 -52 -45 0 -78 28 -78 66 0 64
55 99 114 73z m582 1 c23 0 24 -3 24 -69 l0 -69 -57 -1 c-64 0 -75 4 -92 36
-18 34 -13 62 15 90 20 20 32 24 56 19 17 -3 41 -6 54 -6z m134 -9 c0 -10 -9
-21 -20 -24 -17 -4 -20 -14 -20 -56 0 -44 -3 -51 -20 -51 -18 0 -20 7 -20 69
l0 70 33 4 c17 2 35 5 40 5 4 1 7 -6 7 -17z m137 -4 c6 -6 15 -24 18 -39 l7
-28 -56 0 c-56 0 -71 -11 -38 -29 11 -6 24 -6 35 1 10 5 25 8 34 6 31 -6 -15
-38 -54 -38 -49 0 -73 24 -73 71 0 49 39 84 85 75 16 -4 35 -12 42 -19z m363
3 c15 -15 20 -33 20 -75 0 -48 -2 -55 -20 -55 -17 0 -20 7 -20 49 0 31 -5 53
-15 61 -26 21 -45 -5 -45 -61 0 -42 -3 -49 -20 -49 -18 0 -20 7 -20 69 l0 70
33 4 c17 2 40 5 50 5 9 1 26 -7 37 -18z m171 10 c17 0 19 -9 19 -87 0 -103
-12 -123 -72 -123 -26 0 -45 7 -60 23 l-23 22 24 3 c13 2 27 -2 31 -8 12 -19
55 -8 58 16 3 18 -1 20 -33 16 -48 -6 -75 19 -75 69 0 48 39 84 84 75 15 -3
37 -6 47 -6z m237 -6 c19 -13 22 -24 22 -75 0 -52 -2 -59 -20 -59 -18 0 -20 7
-20 54 0 41 -4 55 -16 60 -28 11 -44 -13 -44 -65 0 -42 -3 -49 -20 -49 -18 0
-20 7 -20 69 l0 70 33 4 c17 2 39 5 47 5 9 1 26 -5 38 -14z m167 -9 c14 -13
25 -33 25 -45 0 -18 -6 -20 -55 -20 -55 0 -70 -11 -39 -28 10 -6 27 -5 45 1
33 13 47 4 29 -18 -19 -22 -86 -19 -110 5 -43 43 -6 130 55 130 14 0 37 -11
50 -25z m160 0 c14 -13 25 -33 25 -45 0 -18 -6 -20 -55 -20 -55 0 -70 -11 -39
-28 10 -6 27 -5 45 1 33 13 47 4 29 -18 -19 -22 -86 -19 -110 5 -43 43 -6 130
55 130 14 0 37 -11 50 -25z m125 6 c0 -10 -9 -21 -20 -24 -17 -4 -20 -14 -20
-56 0 -44 -3 -51 -20 -51 -18 0 -20 7 -20 69 l0 70 33 4 c17 2 35 5 40 5 4 1
7 -6 7 -17z m205 -6 c20 -19 25 -34 25 -75 0 -43 -3 -50 -20 -50 -17 0 -20 7
-20 49 0 52 -16 76 -44 65 -12 -5 -16 -19 -16 -60 0 -47 -2 -54 -20 -54 -18 0
-20 7 -20 69 l0 70 33 4 c17 2 38 5 45 5 7 1 24 -9 37 -23z m176 15 c17 0 19
-9 19 -87 0 -103 -12 -123 -72 -123 -26 0 -45 7 -60 23 l-23 22 24 3 c13 2 27
-2 31 -8 12 -19 55 -8 58 16 3 18 -1 20 -33 16 -48 -6 -75 19 -75 69 0 48 39
84 84 75 15 -3 37 -6 47 -6z m203 0 c14 -5 26 -16 26 -25 0 -18 -31 -20 -48
-3 -9 9 -15 9 -24 0 -9 -9 -2 -15 28 -28 36 -15 53 -30 54 -46 0 -17 -35 -38
-65 -38 -34 0 -70 24 -60 41 9 14 31 11 45 -5 6 -8 18 -12 26 -9 19 7 9 18
-36 41 -42 21 -47 35 -21 61 23 23 38 26 75 11z m611 -15 c14 -13 25 -33 25
-45 0 -18 -6 -20 -55 -20 -55 0 -70 -11 -39 -28 10 -6 27 -5 45 1 33 13 47 4
29 -18 -19 -22 -86 -19 -110 5 -43 43 -6 130 55 130 14 0 37 -11 50 -25z m160
0 c20 -19 25 -34 25 -75 0 -43 -3 -50 -20 -50 -17 0 -20 7 -20 49 0 52 -16 76
-44 65 -12 -5 -16 -19 -16 -60 0 -47 -2 -54 -20 -54 -18 0 -20 7 -20 69 l0 70
33 4 c17 2 38 5 45 5 7 1 24 -9 37 -23z m536 15 c17 0 19 -8 19 -69 l0 -69
-57 -1 c-61 0 -80 9 -94 48 -20 52 27 105 85 96 16 -3 37 -5 47 -5z m179 -1
c8 0 27 3 42 6 43 11 68 -23 68 -90 0 -48 -2 -55 -20 -55 -17 0 -20 7 -20 49
0 31 -5 53 -15 61 -26 21 -45 -5 -45 -61 0 -42 -3 -49 -20 -49 -17 0 -20 7
-20 49 0 56 -19 82 -45 61 -10 -8 -15 -30 -15 -61 0 -42 -3 -49 -20 -49 -18 0
-20 7 -20 69 l0 70 33 4 c17 2 43 2 57 0 14 -2 32 -4 40 -4z m-13213 -41 l9
-43 14 43 c10 33 18 42 35 42 18 0 24 -8 32 -42 l9 -43 13 43 c9 32 17 42 32
42 13 0 19 -5 16 -12 -2 -7 -13 -39 -23 -70 -14 -47 -22 -58 -39 -58 -18 0
-24 8 -32 43 l-9 42 -13 -43 c-10 -35 -16 -43 -33 -40 -16 2 -27 19 -44 71
l-23 67 23 0 c19 0 25 -8 33 -42z m2773 -28 c0 -63 -2 -70 -20 -70 -18 0 -20
7 -20 70 0 63 2 70 20 70 18 0 20 -7 20 -70z m1072 18 c3 -49 5 -53 28 -53 23
0 25 4 28 53 3 44 6 52 23 52 17 0 19 -7 19 -70 l0 -70 -54 0 c-36 0 -60 5
-70 16 -11 10 -16 34 -16 70 0 47 3 54 19 54 17 0 20 -8 23 -52z m1020 0 c3
-49 5 -53 28 -53 23 0 25 4 28 53 3 44 6 52 23 52 17 0 19 -7 19 -70 l0 -70
-54 0 c-71 0 -86 15 -86 86 0 47 3 54 19 54 17 0 20 -8 23 -52z m2296 2 c16
-48 16 -47 42 23 6 17 17 27 30 27 19 0 19 -1 -5 -66 -14 -37 -25 -68 -25 -70
0 -2 -11 -4 -24 -4 -20 0 -28 9 -44 53 -11 28 -24 60 -28 70 -6 15 -3 18 16
15 18 -2 27 -14 38 -48z m3382 -20 c0 -63 -2 -70 -20 -70 -18 0 -20 7 -20 70
0 63 2 70 20 70 18 0 20 -7 20 -70z m660 0 c0 -63 -2 -70 -20 -70 -18 0 -20 7
-20 70 0 63 2 70 20 70 18 0 20 -7 20 -70z m710 28 c0 -52 11 -71 36 -66 15 2
20 14 22 56 3 44 6 52 23 52 17 0 19 -7 19 -70 l0 -70 -54 0 c-67 0 -86 20
-86 92 0 41 3 48 20 48 17 0 20 -7 20 -42z m-5215 -94 c-8 -20 -15 -38 -15
-40 0 -2 -7 -4 -16 -4 -12 0 -14 7 -9 33 10 43 13 47 36 47 18 0 19 -2 4 -36z
m1263 13 c2 -11 -3 -17 -17 -17 -23 0 -35 15 -26 31 10 15 39 6 43 -14z m60 0
c2 -11 -3 -17 -16 -17 -26 0 -34 11 -20 27 14 17 32 12 36 -10z m61 10 c13
-16 5 -27 -21 -27 -18 0 -25 20 -11 33 10 10 19 8 32 -6z m-6941 -314 c5 -17
-26 -29 -40 -15 -6 6 -7 15 -3 22 9 14 37 9 43 -7z m502 2 c0 -8 -4 -15 -10
-15 -5 0 -10 -7 -10 -15 0 -8 7 -15 15 -15 8 0 15 -4 15 -10 0 -5 -7 -10 -15
-10 -12 0 -15 -13 -15 -60 0 -53 -2 -60 -20 -60 -18 0 -20 7 -20 59 0 38 -5
61 -12 65 -10 5 -10 7 0 12 6 3 12 13 12 23 0 9 5 22 12 29 17 17 48 15 48 -3z
m2218 -2 c5 -17 -26 -29 -40 -15 -6 6 -7 15 -3 22 9 14 37 9 43 -7z m162 -3
c0 -13 -7 -20 -20 -20 -13 0 -20 7 -20 20 0 13 7 20 20 20 13 0 20 -7 20 -20z
m768 3 c5 -17 -26 -29 -40 -15 -6 6 -7 15 -3 22 9 14 37 9 43 -7z m1922 -3 c0
-13 -7 -20 -20 -20 -13 0 -20 7 -20 20 0 13 7 20 20 20 13 0 20 -7 20 -20z
m1678 3 c5 -17 -26 -29 -40 -15 -6 6 -7 15 -3 22 9 14 37 9 43 -7z m-8078 -88
c0 -88 -1 -95 -20 -95 -19 0 -20 7 -20 95 0 88 1 95 20 95 19 0 20 -7 20 -95z
m280 0 c0 -88 -1 -95 -20 -95 -19 0 -20 7 -20 95 0 88 1 95 20 95 19 0 20 -7
20 -95z m400 48 l0 -46 23 21 c13 12 34 22 47 22 23 0 23 -1 -10 -35 l-34 -35
34 -35 c33 -34 33 -35 10 -35 -13 0 -34 10 -47 22 l-23 21 0 -21 c0 -15 -6
-22 -20 -22 -19 0 -20 7 -20 95 0 88 1 95 20 95 17 0 20 -7 20 -47z m5580 0
c0 -46 1 -47 16 -25 9 13 26 22 40 22 l25 0 -27 -35 -27 -36 27 -27 c32 -35
33 -42 2 -42 -13 0 -30 10 -39 23 l-16 22 0 -22 c-1 -16 -7 -23 -21 -23 -19 0
-20 7 -20 95 0 88 1 95 20 95 17 0 20 -7 20 -47z m210 -48 c0 -88 -1 -95 -20
-95 -19 0 -20 7 -20 95 0 88 1 95 20 95 19 0 20 -7 20 -95z m70 0 c0 -88 -1
-95 -20 -95 -19 0 -20 7 -20 95 0 88 1 95 20 95 19 0 20 -7 20 -95z m720 1 l0
-94 -57 -1 c-61 0 -80 9 -94 48 -20 52 37 113 90 96 18 -5 21 -2 21 19 0 19 5
26 20 26 19 0 20 -7 20 -94z m1820 47 l1 -48 18 23 c12 13 30 22 47 22 l28 0
-34 -35 -34 -35 34 -35 c33 -34 33 -35 10 -35 -13 0 -34 10 -47 22 l-23 21 0
-21 c0 -15 -6 -22 -20 -22 -19 0 -20 7 -20 95 0 88 1 95 20 95 17 0 20 -7 20
-47z m690 -48 c0 -88 -1 -95 -20 -95 -19 0 -20 7 -20 95 0 88 1 95 20 95 19 0
20 -7 20 -95z m330 0 l0 -95 -57 0 c-70 0 -93 17 -93 71 0 48 39 84 82 75 25
-5 28 -2 28 19 0 18 5 25 20 25 19 0 20 -7 20 -95z m-10640 69 c0 -9 9 -18 20
-21 11 -3 20 -9 20 -13 0 -4 -9 -10 -20 -13 -15 -4 -20 -14 -20 -41 0 -25 6
-38 20 -46 29 -16 24 -30 -10 -30 -36 0 -47 19 -50 85 -4 84 -2 95 20 95 12 0
20 -7 20 -16z m440 0 c0 -9 9 -18 20 -21 11 -3 20 -9 20 -13 0 -4 -9 -10 -20
-13 -15 -4 -20 -14 -20 -41 0 -25 6 -38 20 -46 29 -16 24 -30 -10 -30 -36 0
-47 19 -50 85 -4 84 -2 95 20 95 12 0 20 -7 20 -16z m3220 -4 c0 -11 7 -20 15
-20 8 0 15 -4 15 -10 0 -5 -7 -10 -15 -10 -11 0 -15 -12 -15 -45 0 -33 4 -45
15 -45 8 0 15 -7 15 -15 0 -15 -26 -20 -54 -9 -12 5 -16 20 -16 60 0 54 0 54
-27 48 -37 -9 -35 -6 -41 -64 -4 -40 -8 -50 -23 -50 -17 0 -19 8 -19 70 l0 70
33 2 c17 0 42 0 55 -1 16 -1 22 4 22 19 0 13 7 20 20 20 13 0 20 -7 20 -20z
m500 0 c0 -13 7 -20 20 -20 11 0 20 -4 20 -10 0 -5 -9 -10 -20 -10 -17 0 -20
-7 -20 -44 0 -35 4 -45 20 -49 30 -8 24 -27 -8 -27 -40 0 -52 17 -52 71 0 28
-5 50 -12 53 -10 5 -10 7 0 12 6 3 12 14 12 25 0 12 7 19 20 19 13 0 20 -7 20
-20z m530 0 c0 -13 7 -20 20 -20 11 0 20 -4 20 -10 0 -5 -9 -10 -20 -10 -17 0
-20 -7 -20 -44 0 -35 4 -45 20 -49 30 -8 24 -27 -8 -27 -40 0 -52 17 -52 71 0
28 -5 50 -12 53 -10 5 -10 7 0 12 6 3 12 14 12 25 0 12 7 19 20 19 13 0 20 -7
20 -20z m-5252 -26 c12 -8 22 -19 22 -25 0 -12 -37 -12 -45 1 -20 32 -61 -14
-51 -56 7 -26 43 -33 63 -13 6 6 18 9 27 7 15 -3 15 -5 1 -25 -21 -30 -86 -32
-115 -3 -62 62 25 165 98 114z m166 -5 c56 -44 23 -129 -51 -129 -49 0 -73 23
-73 71 0 42 35 79 75 79 12 0 34 -9 49 -21z m164 5 c19 -13 22 -24 22 -75 0
-52 -2 -59 -20 -59 -18 0 -20 7 -20 54 0 41 -4 55 -16 60 -28 11 -44 -13 -44
-65 0 -42 -3 -49 -20 -49 -18 0 -20 7 -20 69 l0 70 33 4 c17 2 39 5 47 5 9 1
26 -5 38 -14z m155 -6 l22 -23 -25 -3 c-13 -2 -26 1 -28 7 -5 16 -32 13 -32
-3 0 -8 15 -20 34 -26 39 -13 51 -33 36 -61 -15 -27 -80 -26 -105 1 -17 18
-17 20 -1 26 10 4 22 2 29 -5 13 -13 47 -15 47 -3 0 5 -18 16 -40 25 -32 12
-40 20 -40 42 0 45 66 59 103 23z m258 12 c17 0 19 -8 19 -69 l0 -69 -57 -1
c-71 0 -93 16 -93 70 0 48 39 84 84 75 15 -3 37 -6 47 -6z m167 -6 c19 -13 22
-24 22 -75 0 -52 -2 -59 -20 -59 -18 0 -20 7 -20 54 0 41 -4 55 -16 60 -28 11
-44 -13 -44 -65 0 -42 -3 -49 -20 -49 -18 0 -20 7 -20 69 l0 70 33 4 c17 2 39
5 47 5 9 1 26 -5 38 -14z m605 5 c24 -11 47 -47 47 -73 0 -7 -9 -25 -21 -40
-37 -47 -116 -32 -134 25 -11 33 3 67 33 83 33 18 44 19 75 5z m181 -10 c56
-44 23 -129 -51 -129 -49 0 -73 23 -73 71 0 42 35 79 75 79 12 0 34 -9 49 -21z
m376 3 c18 -14 24 -32 28 -75 4 -56 4 -57 -22 -57 -25 0 -26 2 -26 55 0 41 -4
57 -16 62 -24 9 -36 -11 -42 -66 -4 -41 -8 -51 -23 -51 -17 0 -19 8 -19 69 l0
70 33 4 c17 2 39 5 48 5 9 1 27 -6 39 -16z m177 8 l25 0 -4 -91 c-3 -102 -14
-119 -77 -119 -32 0 -71 23 -71 42 0 12 27 10 50 -4 23 -15 53 -2 58 24 2 12
-4 14 -22 11 -40 -8 -72 4 -84 32 -18 39 -14 63 14 92 20 20 32 24 56 19 17
-3 42 -6 55 -6z m306 -1 c24 -11 47 -47 47 -73 0 -7 -9 -25 -21 -40 -37 -47
-116 -32 -134 25 -11 33 3 67 33 83 33 18 44 19 75 5z m147 -8 c0 -10 -9 -21
-20 -24 -17 -4 -20 -14 -20 -56 0 -44 -3 -51 -20 -51 -18 0 -20 7 -20 69 l0
70 33 4 c17 2 35 5 40 5 4 1 7 -6 7 -17z m200 1 c18 -14 24 -32 28 -75 4 -56
4 -57 -22 -57 -25 0 -26 2 -26 55 0 41 -4 57 -16 62 -24 9 -36 -11 -42 -66 -4
-41 -8 -51 -23 -51 -17 0 -19 8 -19 69 l0 70 33 4 c17 2 39 5 48 5 9 1 27 -6
39 -16z m164 -3 c15 -12 26 -30 26 -44 0 -22 -4 -24 -57 -27 -54 -3 -56 -4
-39 -20 13 -14 22 -15 36 -8 10 6 29 10 41 10 21 0 22 -1 4 -20 -20 -22 -73
-27 -105 -10 -24 13 -36 71 -20 100 22 41 74 50 114 19z m459 -10 c42 -51 7
-119 -61 -119 -74 0 -103 79 -47 128 33 28 79 25 108 -9z m151 20 c32 -15 50
-57 37 -90 -14 -38 -37 -52 -76 -47 -35 4 -35 4 -35 -34 0 -31 -4 -38 -20 -38
-19 0 -20 7 -20 104 l0 105 33 4 c17 2 37 5 44 5 7 1 23 -3 37 -9z m191 -14
c53 -52 18 -130 -56 -123 l-39 4 0 -39 c0 -31 -3 -38 -17 -35 -16 3 -18 17
-21 105 l-3 102 38 4 c21 2 46 4 56 5 10 1 29 -9 42 -23z m149 14 c27 -13 49
-60 39 -87 -13 -36 -36 -52 -75 -52 -45 0 -78 28 -78 66 0 64 55 99 114 73z
m546 -9 c15 -15 20 -33 20 -75 0 -48 -2 -55 -20 -55 -17 0 -20 7 -20 49 0 31
-5 53 -15 61 -26 21 -45 -5 -45 -61 0 -42 -3 -49 -20 -49 -18 0 -20 7 -20 69
l0 70 33 4 c17 2 40 5 50 5 9 1 26 -7 37 -18z m394 -1 c15 -12 26 -30 26 -44
0 -22 -4 -24 -57 -27 -54 -3 -56 -4 -39 -20 13 -14 22 -15 36 -8 10 6 29 10
41 10 21 0 22 -1 4 -20 -20 -22 -73 -27 -105 -10 -24 13 -36 71 -20 100 22 41
74 50 114 19z m149 -1 l22 -23 -25 -3 c-13 -2 -26 1 -28 7 -5 16 -32 13 -32
-3 0 -8 15 -20 34 -26 39 -13 51 -33 36 -61 -15 -27 -80 -26 -105 1 -17 18
-17 20 -1 26 10 4 22 2 29 -5 13 -13 47 -15 47 -3 0 5 -18 16 -40 25 -32 12
-40 20 -40 42 0 45 66 59 103 23z m330 -9 c42 -51 7 -119 -61 -119 -74 0 -103
79 -47 128 33 28 79 25 108 -9z m297 20 c8 0 27 3 42 6 21 6 32 1 52 -18 21
-21 26 -36 26 -77 0 -43 -3 -50 -20 -50 -17 0 -20 7 -20 43 0 51 -18 81 -43
71 -13 -5 -17 -18 -17 -60 0 -51 -1 -54 -25 -54 -24 0 -25 3 -25 55 0 41 -4
57 -16 62 -24 9 -36 -11 -42 -66 -4 -41 -8 -51 -23 -51 -17 0 -19 8 -19 69 l0
70 33 4 c17 2 43 2 57 0 14 -2 32 -4 40 -4z m275 -14 c53 -52 18 -130 -56
-123 l-39 4 0 -39 c0 -31 -3 -38 -17 -35 -16 3 -18 17 -21 105 l-3 102 38 4
c21 2 46 4 56 5 10 1 29 -9 42 -23z m125 6 c0 -10 -9 -21 -20 -24 -17 -4 -20
-14 -20 -56 0 -44 -3 -51 -20 -51 -18 0 -20 7 -20 69 l0 70 33 4 c17 2 35 5
40 5 4 1 7 -6 7 -17z m124 8 c27 -13 49 -60 39 -87 -13 -36 -36 -52 -75 -52
-45 0 -78 28 -78 66 0 64 55 99 114 73z m309 0 c23 -10 47 -46 47 -69 0 -6
-25 -10 -55 -10 -56 0 -70 -11 -36 -30 13 -7 22 -7 26 0 3 5 18 10 32 10 25 0
26 0 8 -20 -23 -26 -86 -27 -107 -2 -23 27 -28 49 -17 80 15 44 58 61 102 41z
m236 1 c12 -6 29 -5 49 2 25 10 34 9 56 -5 23 -16 26 -24 26 -77 0 -53 -2 -60
-20 -60 -18 0 -20 7 -20 54 0 41 -4 55 -16 60 -28 11 -44 -13 -44 -65 0 -42
-3 -49 -20 -49 -18 0 -20 7 -20 54 0 41 -4 55 -16 60 -28 11 -44 -13 -44 -65
0 -42 -3 -49 -20 -49 -18 0 -20 7 -20 69 l0 70 33 4 c17 2 38 5 45 5 7 1 21
-2 31 -8z m465 0 c14 -5 26 -16 26 -25 0 -18 -31 -20 -48 -3 -9 9 -15 9 -24 0
-9 -9 -2 -15 28 -28 36 -15 53 -30 54 -46 0 -17 -35 -38 -65 -38 -34 0 -70 24
-60 41 9 14 31 11 45 -5 6 -8 18 -12 26 -9 19 7 9 18 -36 41 -42 21 -47 35
-21 61 23 23 38 26 75 11z m494 -6 c12 -8 22 -19 22 -25 0 -13 -34 -11 -48 3
-9 9 -15 9 -23 1 -9 -9 -2 -16 27 -30 42 -20 55 -51 30 -72 -20 -17 -87 -10
-100 11 -14 23 0 35 24 20 23 -14 50 -16 50 -3 0 5 -16 15 -35 21 -44 15 -56
47 -25 72 27 22 49 23 78 2z m238 6 c23 0 24 -3 24 -69 l0 -69 -57 -1 c-64 0
-75 4 -92 36 -18 34 -13 62 15 90 20 20 32 24 56 19 17 -3 41 -6 54 -6z m169
-15 c20 -19 25 -34 25 -75 0 -43 -3 -50 -20 -50 -17 0 -20 7 -20 49 0 52 -16
76 -44 65 -12 -5 -16 -19 -16 -60 0 -47 -2 -54 -20 -54 -18 0 -20 7 -20 69 l0
70 33 4 c17 2 38 5 45 5 7 1 24 -9 37 -23z m421 15 c23 0 24 -3 24 -69 l0 -69
-60 -1 c-48 0 -65 4 -80 19 -47 47 -2 139 62 126 17 -3 41 -6 54 -6z m148 -1
c34 -16 42 -39 13 -39 -13 0 -28 5 -33 10 -20 20 -44 0 -44 -36 0 -39 22 -54
51 -36 20 13 49 16 49 5 0 -20 -37 -43 -70 -43 -56 0 -88 45 -69 98 15 45 58
61 103 41z m182 1 c24 0 24 -1 24 -105 0 -98 -1 -105 -20 -105 -16 0 -20 7
-20 38 l0 38 -39 -4 c-75 -7 -109 71 -55 125 20 20 32 24 56 19 17 -3 41 -6
54 -6z m364 -9 c0 -10 -9 -21 -20 -24 -17 -4 -20 -14 -20 -56 0 -44 -3 -51
-20 -51 -18 0 -20 7 -20 69 l0 70 33 4 c17 2 35 5 40 5 4 1 7 -6 7 -17z m134
-2 c15 -12 26 -30 26 -44 0 -22 -4 -24 -57 -27 -54 -3 -56 -4 -39 -20 13 -14
22 -15 36 -8 10 6 29 10 41 10 21 0 22 -1 4 -20 -20 -22 -73 -27 -105 -10 -24
13 -36 71 -20 100 22 41 74 50 114 19z m236 1 c15 -15 20 -33 20 -75 0 -48 -2
-55 -20 -55 -17 0 -20 7 -20 49 0 56 -19 82 -45 61 -10 -8 -15 -30 -15 -61 0
-42 -3 -49 -20 -49 -18 0 -20 7 -20 69 l0 70 33 4 c17 2 40 5 50 5 9 1 26 -7
37 -18z m167 -3 c6 -6 15 -24 18 -39 l7 -28 -56 0 c-56 0 -71 -11 -38 -29 11
-6 24 -6 35 1 10 5 25 8 34 6 31 -6 -15 -38 -54 -38 -49 0 -73 24 -73 71 0 49
39 84 85 75 16 -4 35 -12 42 -19z m581 7 c19 -13 22 -24 22 -75 0 -52 -2 -59
-20 -59 -18 0 -20 7 -20 54 0 41 -4 55 -16 60 -28 11 -44 -13 -44 -65 0 -42
-3 -49 -20 -49 -18 0 -20 7 -20 69 l0 70 33 4 c17 2 39 5 47 5 9 1 26 -5 38
-14z m156 5 c27 -13 49 -60 39 -87 -13 -36 -36 -52 -75 -52 -45 0 -78 28 -78
66 0 64 55 99 114 73z m463 -12 c6 -6 15 -24 18 -39 l7 -28 -56 0 c-56 0 -71
-11 -38 -29 11 -6 24 -6 35 1 10 5 25 8 34 6 31 -6 -15 -38 -54 -38 -49 0 -73
24 -73 71 0 49 39 84 85 75 16 -4 35 -12 42 -19z m344 13 c17 0 19 -9 19 -85
0 -72 -3 -88 -20 -105 -27 -27 -83 -27 -112 2 -26 26 -9 37 27 18 30 -16 59
-9 63 16 3 18 -1 20 -33 16 -20 -2 -42 1 -51 9 -62 51 -19 147 60 134 16 -3
37 -5 47 -5z m164 -15 c14 -13 25 -33 25 -45 0 -18 -6 -20 -55 -20 -55 0 -70
-11 -39 -28 10 -6 27 -5 45 1 33 13 47 4 29 -18 -19 -22 -86 -19 -110 5 -43
43 -6 130 55 130 14 0 37 -11 50 -25z m-10356 -34 l17 -43 18 46 c13 33 23 46
38 46 11 0 18 -4 16 -8 -73 -179 -84 -202 -100 -202 -21 0 -22 10 -7 44 12 25
10 35 -36 149 -6 15 -4 18 15 15 16 -2 27 -16 39 -47z m761 -21 c0 -63 -2 -70
-20 -70 -18 0 -20 7 -20 70 0 63 2 70 20 70 18 0 20 -7 20 -70z m1215 30 c8
-47 20 -45 29 5 6 28 11 35 31 35 20 0 25 -7 31 -35 3 -19 10 -35 14 -35 4 0
11 16 14 35 5 26 12 35 26 35 24 0 24 6 -1 -75 -17 -57 -23 -66 -42 -63 -15 2
-25 14 -32 42 l-11 38 -13 -41 c-10 -34 -16 -42 -34 -39 -16 2 -25 16 -39 63
-22 75 -22 75 1 75 15 0 21 -10 26 -40z m1167 -12 c3 -49 5 -53 28 -53 23 0
25 4 28 53 3 44 6 52 23 52 17 0 19 -7 19 -70 l0 -70 -54 0 c-36 0 -60 5 -70
16 -11 10 -16 34 -16 70 0 47 3 54 19 54 17 0 20 -8 23 -52z m338 -18 c0 -63
-2 -70 -20 -70 -18 0 -20 7 -20 70 0 63 2 70 20 70 18 0 20 -7 20 -70z m160 0
c0 -63 -2 -70 -20 -70 -18 0 -20 7 -20 70 0 63 2 70 20 70 18 0 20 -7 20 -70z
m770 0 c0 -63 -2 -70 -20 -70 -18 0 -20 7 -20 70 0 63 2 70 20 70 18 0 20 -7
20 -70z m778 20 c16 -48 16 -47 42 23 6 17 17 27 30 27 19 0 19 -1 -5 -66 -14
-37 -25 -68 -25 -70 0 -2 -11 -4 -24 -4 -20 0 -28 9 -44 53 -11 28 -24 60 -28
70 -6 15 -3 18 16 15 18 -2 27 -14 38 -48z m643 10 c7 -22 16 -40 20 -40 5 0
14 18 20 40 9 28 18 40 31 40 10 0 18 -4 18 -8 0 -5 -18 -51 -39 -103 -30 -71
-45 -95 -60 -97 -25 -4 -26 0 -6 38 14 28 14 34 -10 92 -30 74 -30 78 -5 78
14 0 22 -11 31 -40z m499 -30 c0 -63 -2 -70 -20 -70 -18 0 -20 7 -20 70 0 63
2 70 20 70 18 0 20 -7 20 -70z m1500 38 c0 -56 10 -78 35 -78 25 0 35 22 35
78 0 25 4 32 20 32 18 0 20 -7 20 -70 l0 -70 -59 0 c-71 0 -83 11 -89 86 -4
50 -3 54 17 54 17 0 21 -6 21 -32z m170 -38 c0 -63 -2 -70 -20 -70 -18 0 -20
7 -20 70 0 63 2 70 20 70 18 0 20 -7 20 -70z m721 28 l12 -43 12 40 c9 32 17
40 35 40 18 0 26 -8 35 -40 l11 -40 10 40 c7 29 15 41 31 43 l21 3 -22 -70
c-18 -59 -25 -71 -43 -71 -16 0 -23 8 -28 30 -10 43 -23 46 -31 5 -5 -27 -11
-35 -28 -35 -18 0 -26 10 -40 58 -10 31 -21 63 -23 70 -3 7 3 12 16 12 15 0
23 -10 32 -42z m760 0 l12 -43 12 40 c9 32 17 40 35 40 18 0 26 -8 35 -40 l11
-40 10 40 c7 29 15 41 31 43 l21 3 -22 -70 c-18 -59 -25 -71 -43 -71 -16 0
-23 8 -28 30 -10 43 -23 46 -31 5 -5 -27 -11 -35 -28 -35 -18 0 -26 10 -40 58
-10 31 -21 63 -23 70 -3 7 3 12 16 12 15 0 23 -10 32 -42z m957 -81 c2 -11 -3
-17 -17 -17 -23 0 -35 15 -26 31 10 15 39 6 43 -14z m-11276 -619 c70 -32 124
-86 157 -157 21 -46 26 -71 26 -136 0 -65 -5 -90 -26 -136 -94 -201 -358 -249
-514 -94 -78 79 -112 210 -82 316 57 194 259 289 439 207z m900 4 c65 -28 133
-94 165 -161 37 -74 39 -190 6 -263 -30 -66 -96 -133 -162 -165 -47 -24 -69
-28 -136 -28 -67 0 -89 4 -136 28 -222 109 -252 393 -57 550 84 68 219 84 320
39z m900 0 c65 -28 133 -94 165 -161 37 -74 39 -190 6 -263 -30 -66 -96 -133
-162 -165 -47 -24 -69 -28 -136 -28 -67 0 -89 4 -136 28 -222 109 -252 393
-57 550 84 68 219 84 320 39z m900 0 c65 -28 133 -94 165 -161 37 -74 39 -190
6 -263 -30 -66 -96 -133 -162 -165 -47 -24 -69 -28 -136 -28 -67 0 -89 4 -136
28 -222 109 -252 393 -57 550 84 68 219 84 320 39z m-1430 -1079 c66 -30 143
-105 175 -172 24 -49 28 -68 28 -146 0 -78 -4 -97 -28 -146 -32 -67 -109 -142
-175 -172 -47 -22 -49 -22 -757 -22 l-710 0 -56 28 c-67 32 -142 109 -172 175
-31 67 -31 207 0 274 25 54 90 128 140 159 78 48 75 48 813 46 691 -2 695 -2
742 -24z m2250 -11 c77 -38 130 -92 167 -171 21 -46 26 -70 26 -136 0 -71 -4
-89 -33 -147 -38 -77 -92 -130 -171 -167 l-56 -26 -745 0 -745 0 -56 26 c-79
37 -133 90 -171 167 -61 124 -41 270 52 375 37 43 101 83 163 103 34 10 188
13 772 11 l730 -2 67 -33z"/>
<path d="M3200 13506 c-15 -40 -13 -46 14 -46 24 0 24 2 14 33 -15 43 -16 44
-28 13z"/>
<path d="M4620 13555 c0 -22 4 -25 35 -25 28 0 35 4 35 19 0 20 -18 31 -51 31
-14 0 -19 -7 -19 -25z"/>
<path d="M4620 13435 c0 -24 3 -26 38 -23 29 2 37 7 37 23 0 16 -8 21 -37 23
-35 3 -38 1 -38 -23z"/>
<path d="M17855 13514 c-33 -33 4 -92 43 -68 9 6 18 20 20 31 3 20 -21 53 -38
53 -5 0 -16 -7 -25 -16z"/>
<path d="M4140 13505 c-11 -13 -8 -15 19 -15 33 0 42 14 15 24 -21 8 -20 8
-34 -9z"/>
<path d="M4912 13498 c-17 -17 -15 -63 4 -79 22 -18 48 0 52 35 6 45 -29 71
-56 44z"/>
<path d="M5194 13502 c-23 -15 -25 -49 -5 -73 16 -20 23 -22 38 -13 22 13 29
60 12 80 -13 15 -28 18 -45 6z"/>
<path d="M5774 13505 c-18 -13 -16 -14 20 -15 33 0 37 2 26 15 -15 19 -21 19
-46 0z"/>
<path d="M16514 13522 c-41 -27 -6 -105 36 -82 33 18 21 90 -14 90 -6 0 -16
-4 -22 -8z"/>
<path d="M16942 13518 c-20 -20 -14 -28 23 -28 37 0 49 22 19 34 -22 8 -28 8
-42 -6z"/>
<path d="M18355 13514 c-33 -33 4 -92 43 -68 9 6 18 20 20 31 3 20 -21 53 -38
53 -5 0 -16 -7 -25 -16z"/>
<path d="M18696 13514 c-19 -18 -21 -45 -4 -62 20 -20 48 -14 60 13 9 21 8 28
-7 45 -22 24 -29 25 -49 4z"/>
<path d="M19800 13515 c-11 -13 -8 -15 20 -15 21 0 30 4 28 13 -7 18 -33 20
-48 2z"/>
<path d="M20430 13515 c-11 -13 -7 -15 25 -15 32 0 36 2 25 15 -7 8 -18 15
-25 15 -7 0 -18 -7 -25 -15z"/>
<path d="M21546 13514 c-19 -18 -21 -45 -4 -62 20 -20 48 -14 60 13 9 21 8 28
-7 45 -22 24 -29 25 -49 4z"/>
<path d="M21975 13514 c-33 -33 4 -92 43 -68 9 6 18 20 20 31 3 20 -21 53 -38
53 -5 0 -16 -7 -25 -16z"/>
<path d="M8806 10930 c-8 -19 -76 -223 -76 -227 0 -2 36 -3 80 -3 44 0 80 4
80 8 0 26 -79 234 -84 222z"/>
<path d="M10938 10854 c-27 -14 -48 -42 -48 -63 0 -7 37 -11 105 -11 58 0 105
2 105 5 0 2 -5 16 -12 30 -23 50 -95 69 -150 39z"/>
<path d="M7841 9784 c-55 -69 14 -164 89 -124 27 14 41 64 28 100 -19 55 -82
68 -117 24z"/>
<path d="M8280 9766 l0 -116 40 0 c47 0 95 22 110 49 5 11 10 42 10 70 0 73
-28 103 -103 109 l-57 4 0 -116z"/>
<path d="M5550 9790 c-44 -44 -14 -140 44 -140 42 0 69 31 69 80 0 33 -6 48
-23 62 -29 24 -65 23 -90 -2z"/>
<path d="M6540 9790 c-44 -44 -14 -140 44 -140 42 0 69 31 69 80 0 33 -6 48
-23 62 -29 24 -65 23 -90 -2z"/>
<path d="M7540 9812 c-20 -6 -50 -33 -50 -44 0 -4 29 -8 65 -8 67 0 77 6 48
32 -23 19 -44 26 -63 20z"/>
<path d="M8660 9807 c-14 -7 -26 -20 -28 -30 -3 -15 5 -17 57 -17 45 0 61 4
61 14 0 31 -54 51 -90 33z"/>
<path d="M9290 9812 c-20 -6 -50 -33 -50 -44 0 -4 29 -8 65 -8 67 0 77 6 48
32 -23 19 -44 26 -63 20z"/>
<path d="M9724 9802 c-19 -12 -34 -49 -34 -81 0 -63 77 -95 120 -49 44 47 13
138 -48 138 -15 0 -32 -4 -38 -8z"/>
<path d="M10050 9790 c-13 -13 -20 -33 -20 -60 0 -73 71 -107 118 -57 66 70
-30 185 -98 117z"/>
<path d="M10393 9809 c-12 -4 -27 -17 -33 -28 -10 -20 -8 -21 55 -21 48 0 65
3 65 14 0 28 -51 49 -87 35z"/>
<path d="M7716 8877 c-12 -9 -17 -23 -14 -42 3 -26 7 -30 33 -30 26 0 30 4 33
32 4 39 -24 60 -52 40z"/>
<path d="M13616 8874 c-19 -18 -21 -45 -4 -62 35 -35 82 11 53 54 -18 28 -28
30 -49 8z"/>
<path d="M15996 8874 c-29 -29 -13 -74 26 -74 16 0 38 27 38 49 0 12 -28 41
-40 41 -5 0 -16 -7 -24 -16z"/>
<path d="M19301 8876 c-7 -8 -11 -27 -9 -43 3 -24 8 -28 33 -28 26 0 30 4 33
30 3 19 -2 33 -14 42 -23 17 -29 16 -43 -1z"/>
<path d="M5396 8877 c-12 -9 -17 -23 -14 -42 3 -26 7 -30 33 -30 26 0 30 4 33
32 4 39 -24 60 -52 40z"/>
<path d="M5906 8874 c-19 -18 -21 -45 -4 -62 35 -35 82 11 53 54 -18 28 -28
30 -49 8z"/>
<path d="M6308 8879 c-36 -20 -17 -83 23 -77 18 2 25 10 27 31 3 26 -12 57
-27 57 -3 0 -14 -5 -23 -11z"/>
<path d="M6865 8874 c-33 -33 4 -92 43 -68 9 6 18 20 20 31 3 20 -21 53 -38
53 -5 0 -16 -7 -25 -16z"/>
<path d="M7140 8875 c-11 -13 -8 -15 20 -15 21 0 30 4 28 13 -7 18 -33 20 -48
2z"/>
<path d="M7371 8876 c-7 -8 -11 -27 -9 -43 2 -21 9 -29 27 -31 41 -6 59 58 22
78 -25 13 -26 13 -40 -4z"/>
<path d="M8281 8876 c-7 -8 -11 -27 -9 -43 2 -21 9 -29 27 -31 41 -6 59 58 22
78 -25 13 -26 13 -40 -4z"/>
<path d="M8816 8877 c-12 -9 -17 -23 -14 -42 3 -26 7 -30 33 -30 26 0 30 4 33
32 4 39 -24 60 -52 40z"/>
<path d="M9158 8879 c-36 -20 -17 -83 23 -77 18 2 25 10 27 31 3 26 -12 57
-27 57 -3 0 -14 -5 -23 -11z"/>
<path d="M10090 8875 c-11 -13 -7 -15 25 -15 32 0 36 2 25 15 -7 8 -18 15 -25
15 -7 0 -18 -7 -25 -15z"/>
<path d="M11035 8874 c-33 -33 4 -92 43 -68 9 6 18 20 20 31 3 20 -21 53 -38
53 -5 0 -16 -7 -25 -16z"/>
<path d="M11453 8883 c-24 -9 -13 -23 17 -23 32 0 40 14 14 24 -9 3 -16 6 -17
5 -1 0 -8 -3 -14 -6z"/>
<path d="M11613 8883 c-24 -9 -13 -23 17 -23 32 0 40 14 14 24 -9 3 -16 6 -17
5 -1 0 -8 -3 -14 -6z"/>
<path d="M12106 8874 c-19 -18 -21 -45 -4 -62 35 -35 82 11 53 54 -18 28 -28
30 -49 8z"/>
<path d="M13793 8883 c-24 -9 -13 -23 17 -23 32 0 40 14 14 24 -9 3 -16 6 -17
5 -1 0 -8 -3 -14 -6z"/>
<path d="M14291 8876 c-7 -8 -11 -27 -9 -43 3 -24 8 -28 33 -28 26 0 30 4 33
30 3 19 -2 33 -14 42 -23 17 -29 16 -43 -1z"/>
<path d="M14455 8874 c-33 -33 4 -92 43 -68 9 6 18 20 20 31 3 20 -21 53 -38
53 -5 0 -16 -7 -25 -16z"/>
<path d="M14976 8874 c-19 -18 -21 -45 -4 -62 20 -20 48 -14 60 13 9 21 8 28
-7 45 -22 24 -29 25 -49 4z"/>
<path d="M15316 8877 c-12 -9 -17 -23 -14 -42 3 -26 7 -30 33 -30 26 0 30 4
33 32 4 39 -24 60 -52 40z"/>
<path d="M15580 8875 c-11 -13 -7 -15 25 -15 32 0 36 2 25 15 -7 8 -18 15 -25
15 -7 0 -18 -7 -25 -15z"/>
<path d="M15816 8877 c-12 -9 -17 -23 -14 -42 3 -26 7 -30 33 -30 26 0 30 4
33 32 4 39 -24 60 -52 40z"/>
<path d="M16161 8876 c-7 -8 -11 -27 -9 -43 3 -24 8 -28 33 -28 26 0 30 4 33
30 3 19 -2 33 -14 42 -23 17 -29 16 -43 -1z"/>
<path d="M16801 8876 c-7 -8 -11 -27 -9 -43 2 -21 9 -29 27 -31 41 -6 59 58
22 78 -25 13 -26 13 -40 -4z"/>
<path d="M17415 8874 c-33 -33 4 -92 43 -68 9 6 18 20 20 31 3 20 -21 53 -38
53 -5 0 -16 -7 -25 -16z"/>
<path d="M17816 8874 c-19 -18 -21 -45 -4 -62 20 -20 48 -14 60 13 9 21 8 28
-7 45 -22 24 -29 25 -49 4z"/>
<path d="M18261 8876 c-7 -8 -11 -27 -9 -43 3 -24 8 -28 33 -28 26 0 30 4 33
30 3 19 -2 33 -14 42 -23 17 -29 16 -43 -1z"/>
<path d="M18490 8875 c-11 -13 -7 -15 25 -15 32 0 36 2 25 15 -7 8 -18 15 -25
15 -7 0 -18 -7 -25 -15z"/>
<path d="M18861 8876 c-7 -8 -11 -27 -9 -43 3 -24 8 -28 33 -28 26 0 30 4 33
30 3 19 -2 33 -14 42 -23 17 -29 16 -43 -1z"/>
<path d="M19126 8874 c-19 -18 -21 -45 -4 -62 20 -20 48 -14 60 13 9 21 8 28
-7 45 -22 24 -29 25 -49 4z"/>
<path d="M19530 8875 c-11 -13 -7 -15 25 -15 32 0 36 2 25 15 -7 8 -18 15 -25
15 -7 0 -18 -7 -25 -15z"/>
<path d="M5606 8417 c-12 -9 -17 -23 -14 -42 3 -26 7 -30 33 -30 26 0 30 4 33
32 4 39 -24 60 -52 40z"/>
<path d="M11778 8419 c-36 -20 -17 -83 23 -77 18 2 25 10 27 31 3 26 -12 57
-27 57 -3 0 -14 -5 -23 -11z"/>
<path d="M13196 8417 c-12 -9 -17 -23 -14 -42 3 -26 7 -30 33 -30 26 0 30 4
33 32 4 39 -24 60 -52 40z"/>
<path d="M15996 8414 c-19 -18 -21 -45 -4 -62 35 -35 82 11 53 54 -18 28 -28
30 -49 8z"/>
<path d="M17441 8416 c-7 -8 -11 -27 -9 -43 2 -21 9 -29 27 -31 41 -6 59 58
22 78 -25 13 -26 13 -40 -4z"/>
<path d="M5255 8414 c-33 -33 4 -92 43 -68 9 6 18 20 20 31 3 20 -21 53 -38
53 -5 0 -16 -7 -25 -16z"/>
<path d="M6103 8423 c-24 -9 -13 -23 17 -23 32 0 40 14 14 24 -9 3 -16 6 -17
5 -1 0 -8 -3 -14 -6z"/>
<path d="M6261 8416 c-7 -8 -11 -27 -9 -43 2 -21 9 -29 27 -31 41 -6 59 58 22
78 -25 13 -26 13 -40 -4z"/>
<path d="M6765 8414 c-33 -33 4 -92 43 -68 9 6 18 20 20 31 3 20 -21 53 -38
53 -5 0 -16 -7 -25 -16z"/>
<path d="M7416 8414 c-19 -18 -21 -45 -4 -62 20 -20 48 -14 60 13 9 21 8 28
-7 45 -22 24 -29 25 -49 4z"/>
<path d="M7731 8416 c-7 -8 -11 -27 -9 -43 2 -21 9 -29 27 -31 41 -6 59 58 22
78 -25 13 -26 13 -40 -4z"/>
<path d="M8223 8423 c-24 -9 -13 -23 17 -23 32 0 40 14 14 24 -9 3 -16 6 -17
5 -1 0 -8 -3 -14 -6z"/>
<path d="M8586 8414 c-19 -18 -21 -45 -4 -62 20 -20 48 -14 60 13 9 21 8 28
-7 45 -22 24 -29 25 -49 4z"/>
<path d="M9151 8416 c-7 -8 -11 -27 -9 -43 3 -24 8 -28 33 -28 26 0 30 4 33
30 3 19 -2 33 -14 42 -23 17 -29 16 -43 -1z"/>
<path d="M10061 8416 c-7 -8 -11 -27 -9 -43 2 -21 9 -29 27 -31 41 -6 59 58
22 78 -25 13 -26 13 -40 -4z"/>
<path d="M10380 8415 c-11 -13 -7 -15 25 -15 32 0 36 2 25 15 -7 8 -18 15 -25
15 -7 0 -18 -7 -25 -15z"/>
<path d="M10616 8417 c-12 -9 -17 -23 -14 -42 3 -26 7 -30 33 -30 26 0 30 4
33 32 4 39 -24 60 -52 40z"/>
<path d="M11191 8416 c-7 -8 -11 -27 -9 -43 2 -21 9 -29 27 -31 41 -6 59 58
22 78 -25 13 -26 13 -40 -4z"/>
<path d="M11526 8417 c-12 -9 -17 -23 -14 -42 3 -26 7 -30 33 -30 26 0 30 4
33 32 4 39 -24 60 -52 40z"/>
<path d="M11946 8417 c-12 -9 -17 -23 -14 -42 3 -26 7 -30 33 -30 26 0 30 4
33 32 4 39 -24 60 -52 40z"/>
<path d="M12415 8414 c-33 -33 4 -92 43 -68 9 6 18 20 20 31 3 20 -21 53 -38
53 -5 0 -16 -7 -25 -16z"/>
<path d="M12691 8416 c-7 -8 -11 -27 -9 -43 3 -24 8 -28 33 -28 26 0 30 4 33
30 3 19 -2 33 -14 42 -23 17 -29 16 -43 -1z"/>
<path d="M13746 8409 c-19 -28 -6 -63 24 -67 40 -6 57 58 21 78 -26 14 -28 13
-45 -11z"/>
<path d="M14018 8419 c-36 -20 -17 -83 23 -77 18 2 25 10 27 31 3 26 -12 57
-27 57 -3 0 -14 -5 -23 -11z"/>
<path d="M14186 8417 c-12 -9 -17 -23 -14 -42 3 -26 7 -30 33 -30 26 0 30 4
33 32 4 39 -24 60 -52 40z"/>
<path d="M14455 8414 c-33 -33 4 -92 43 -68 9 6 18 20 20 31 3 20 -21 53 -38
53 -5 0 -16 -7 -25 -16z"/>
<path d="M15405 8414 c-33 -33 4 -92 43 -68 9 6 18 20 20 31 3 20 -21 53 -38
53 -5 0 -16 -7 -25 -16z"/>
<path d="M15651 8416 c-7 -8 -11 -27 -9 -43 2 -21 9 -29 27 -31 41 -6 59 58
22 78 -25 13 -26 13 -40 -4z"/>
<path d="M16376 8414 c-19 -18 -21 -45 -4 -62 20 -20 48 -14 60 13 9 21 8 28
-7 45 -22 24 -29 25 -49 4z"/>
<path d="M16935 8414 c-33 -33 4 -92 43 -68 9 6 18 20 20 31 3 20 -21 53 -38
53 -5 0 -16 -7 -25 -16z"/>
<path d="M17210 8415 c-11 -13 -8 -15 20 -15 21 0 30 4 28 13 -7 18 -33 20
-48 2z"/>
<path d="M17610 8415 c-11 -13 -7 -15 25 -15 32 0 36 2 25 15 -7 8 -18 15 -25
15 -7 0 -18 -7 -25 -15z"/>
<path d="M17920 8415 c-11 -13 -7 -15 25 -15 32 0 36 2 25 15 -7 8 -18 15 -25
15 -7 0 -18 -7 -25 -15z"/>
<path d="M18158 8419 c-36 -20 -17 -83 23 -77 18 2 25 10 27 31 3 26 -12 57
-27 57 -3 0 -14 -5 -23 -11z"/>
<path d="M18326 8409 c-19 -28 -6 -63 24 -67 40 -6 57 58 21 78 -26 14 -28 13
-45 -11z"/>
<path d="M18760 8415 c-11 -13 -7 -15 25 -15 32 0 36 2 25 15 -7 8 -18 15 -25
15 -7 0 -18 -7 -25 -15z"/>
<path d="M19316 8414 c-19 -18 -21 -45 -4 -62 35 -35 82 11 53 54 -18 28 -28
30 -49 8z"/>
<path d="M19913 8423 c-24 -9 -13 -23 17 -23 32 0 40 14 14 24 -9 3 -16 6 -17
5 -1 0 -8 -3 -14 -6z"/>
<path d="M6555 7944 c-33 -33 4 -92 43 -68 9 6 18 20 20 31 3 20 -21 53 -38
53 -5 0 -16 -7 -25 -16z"/>
<path d="M18195 7944 c-33 -33 4 -92 43 -68 9 6 18 20 20 31 3 20 -21 53 -38
53 -5 0 -16 -7 -25 -16z"/>
<path d="M11910 7965 c0 -23 4 -26 28 -23 19 2 27 9 27 23 0 14 -8 21 -27 23
-24 3 -28 0 -28 -23z"/>
<path d="M14352 7943 c-17 -31 -15 -43 8 -43 21 0 24 12 11 45 -8 19 -8 19
-19 -2z"/>
<path d="M5255 7944 c-33 -33 4 -92 43 -68 9 6 18 20 20 31 3 20 -21 53 -38
53 -5 0 -16 -7 -25 -16z"/>
<path d="M5951 7946 c-7 -8 -11 -27 -9 -43 2 -21 9 -29 27 -31 41 -6 59 58 22
78 -25 13 -26 13 -40 -4z"/>
<path d="M6390 7945 c-11 -13 -7 -15 25 -15 32 0 36 2 25 15 -7 8 -18 15 -25
15 -7 0 -18 -7 -25 -15z"/>
<path d="M6736 7944 c-19 -18 -21 -45 -4 -62 35 -35 82 11 53 54 -18 28 -28
30 -49 8z"/>
<path d="M6913 7953 c-24 -9 -13 -23 17 -23 32 0 40 14 14 24 -9 3 -16 6 -17
5 -1 0 -8 -3 -14 -6z"/>
<path d="M7136 7944 c-19 -18 -21 -45 -4 -62 20 -20 48 -14 60 13 9 21 8 28
-7 45 -22 24 -29 25 -49 4z"/>
<path d="M7468 7949 c-36 -20 -17 -83 23 -77 18 2 25 10 27 31 3 26 -12 57
-27 57 -3 0 -14 -5 -23 -11z"/>
<path d="M7731 7946 c-7 -8 -11 -27 -9 -43 3 -24 8 -28 33 -28 26 0 30 4 33
30 3 19 -2 33 -14 42 -23 17 -29 16 -43 -1z"/>
<path d="M7895 7944 c-33 -33 4 -92 43 -68 9 6 18 20 20 31 3 20 -21 53 -38
53 -5 0 -16 -7 -25 -16z"/>
<path d="M8176 7947 c-12 -9 -17 -23 -14 -42 3 -26 7 -30 33 -30 26 0 30 4 33
32 4 39 -24 60 -52 40z"/>
<path d="M9126 7947 c-12 -9 -17 -23 -14 -42 3 -26 7 -30 33 -30 26 0 30 4 33
32 4 39 -24 60 -52 40z"/>
<path d="M9436 7944 c-19 -18 -21 -45 -4 -62 35 -35 82 11 53 54 -18 28 -28
30 -49 8z"/>
<path d="M9775 7944 c-33 -33 4 -92 43 -68 9 6 18 20 20 31 3 20 -21 53 -38
53 -5 0 -16 -7 -25 -16z"/>
<path d="M10126 7947 c-12 -9 -17 -23 -14 -42 3 -26 7 -30 33 -30 26 0 30 4
33 32 4 39 -24 60 -52 40z"/>
<path d="M10295 7944 c-33 -33 4 -92 43 -68 9 6 18 20 20 31 3 20 -21 53 -38
53 -5 0 -16 -7 -25 -16z"/>
<path d="M10470 7945 c-11 -13 -7 -15 25 -15 32 0 36 2 25 15 -7 8 -18 15 -25
15 -7 0 -18 -7 -25 -15z"/>
<path d="M11535 7944 c-33 -33 4 -92 43 -68 9 6 18 20 20 31 3 20 -21 53 -38
53 -5 0 -16 -7 -25 -16z"/>
<path d="M12486 7944 c-19 -18 -21 -45 -4 -62 20 -20 48 -14 60 13 9 21 8 28
-7 45 -22 24 -29 25 -49 4z"/>
<path d="M13096 7944 c-19 -18 -21 -45 -4 -62 35 -35 82 11 53 54 -18 28 -28
30 -49 8z"/>
<path d="M13421 7946 c-7 -8 -11 -27 -9 -43 2 -21 9 -29 27 -31 41 -6 59 58
22 78 -25 13 -26 13 -40 -4z"/>
<path d="M13660 7945 c-11 -13 -8 -15 20 -15 21 0 30 4 28 13 -7 18 -33 20
-48 2z"/>
<path d="M14716 7944 c-19 -18 -21 -45 -4 -62 35 -35 82 11 53 54 -18 28 -28
30 -49 8z"/>
<path d="M15118 7949 c-36 -20 -17 -83 23 -77 18 2 25 10 27 31 3 26 -12 57
-27 57 -3 0 -14 -5 -23 -11z"/>
<path d="M15675 7944 c-33 -33 4 -92 43 -68 9 6 18 20 20 31 3 20 -21 53 -38
53 -5 0 -16 -7 -25 -16z"/>
<path d="M15950 7945 c-11 -13 -8 -15 20 -15 21 0 30 4 28 13 -7 18 -33 20
-48 2z"/>
<path d="M16486 7947 c-12 -9 -17 -23 -14 -42 3 -26 7 -30 33 -30 26 0 30 4
33 32 4 39 -24 60 -52 40z"/>
<path d="M16890 7945 c-11 -13 -7 -15 25 -15 32 0 36 2 25 15 -7 8 -18 15 -25
15 -7 0 -18 -7 -25 -15z"/>
<path d="M17050 7945 c-11 -13 -7 -15 25 -15 32 0 36 2 25 15 -7 8 -18 15 -25
15 -7 0 -18 -7 -25 -15z"/>
<path d="M17556 7947 c-12 -9 -17 -23 -14 -42 3 -26 7 -30 33 -30 26 0 30 4
33 32 4 39 -24 60 -52 40z"/>
<path d="M18370 7945 c-11 -13 -7 -15 25 -15 32 0 36 2 25 15 -7 8 -18 15 -25
15 -7 0 -18 -7 -25 -15z"/>
<path d="M19061 7946 c-7 -8 -11 -27 -9 -43 2 -21 9 -29 27 -31 41 -6 59 58
22 78 -25 13 -26 13 -40 -4z"/>
<path d="M13581 7476 c-7 -8 -11 -27 -9 -43 2 -21 9 -29 27 -31 41 -6 59 58
22 78 -25 13 -26 13 -40 -4z"/>
<path d="M16426 7477 c-12 -9 -17 -23 -14 -42 3 -26 7 -30 33 -30 26 0 30 4
33 32 4 39 -24 60 -52 40z"/>
<path d="M5411 7476 c-7 -8 -11 -27 -9 -43 3 -24 8 -28 33 -28 26 0 30 4 33
30 3 19 -2 33 -14 42 -23 17 -29 16 -43 -1z"/>
<path d="M5986 7477 c-12 -9 -17 -23 -14 -42 3 -26 7 -30 33 -30 26 0 30 4 33
32 4 39 -24 60 -52 40z"/>
<path d="M6776 7474 c-19 -18 -21 -45 -4 -62 20 -20 48 -14 60 13 9 21 8 28
-7 45 -22 24 -29 25 -49 4z"/>
<path d="M6941 7476 c-7 -8 -11 -27 -9 -43 3 -24 8 -28 33 -28 26 0 30 4 33
30 3 19 -2 33 -14 42 -23 17 -29 16 -43 -1z"/>
<path d="M7485 7474 c-33 -33 4 -92 43 -68 9 6 18 20 20 31 3 20 -21 53 -38
53 -5 0 -16 -7 -25 -16z"/>
<path d="M7816 7474 c-19 -18 -21 -45 -4 -62 20 -20 48 -14 60 13 9 21 8 28
-7 45 -22 24 -29 25 -49 4z"/>
<path d="M8310 7475 c-11 -13 -7 -15 25 -15 32 0 36 2 25 15 -7 8 -18 15 -25
15 -7 0 -18 -7 -25 -15z"/>
<path d="M8761 7476 c-7 -8 -11 -27 -9 -43 2 -21 9 -29 27 -31 41 -6 59 58 22
78 -25 13 -26 13 -40 -4z"/>
<path d="M8938 7479 c-36 -20 -17 -83 23 -77 18 2 25 10 27 31 3 26 -12 57
-27 57 -3 0 -14 -5 -23 -11z"/>
<path d="M9106 7469 c-19 -28 -6 -63 24 -67 40 -6 57 58 21 78 -26 14 -28 13
-45 -11z"/>
<path d="M9278 7479 c-36 -20 -17 -83 23 -77 18 2 25 10 27 31 3 26 -12 57
-27 57 -3 0 -14 -5 -23 -11z"/>
<path d="M10200 7475 c-11 -13 -7 -15 25 -15 32 0 36 2 25 15 -7 8 -18 15 -25
15 -7 0 -18 -7 -25 -15z"/>
<path d="M10671 7476 c-7 -8 -11 -27 -9 -43 2 -21 9 -29 27 -31 41 -6 59 58
22 78 -25 13 -26 13 -40 -4z"/>
<path d="M11246 7469 c-19 -28 -6 -63 24 -67 40 -6 57 58 21 78 -26 14 -28 13
-45 -11z"/>
<path d="M11518 7479 c-36 -20 -17 -83 23 -77 18 2 25 10 27 31 3 26 -12 57
-27 57 -3 0 -14 -5 -23 -11z"/>
<path d="M11833 7483 c-24 -9 -13 -23 17 -23 32 0 40 14 14 24 -9 3 -16 6 -17
5 -1 0 -8 -3 -14 -6z"/>
<path d="M13235 7474 c-33 -33 4 -92 43 -68 9 6 18 20 20 31 3 20 -21 53 -38
53 -5 0 -16 -7 -25 -16z"/>
<path d="M13826 7474 c-19 -18 -21 -45 -4 -62 35 -35 82 11 53 54 -18 28 -28
30 -49 8z"/>
<path d="M14156 7474 c-19 -18 -21 -45 -4 -62 35 -35 82 11 53 54 -18 28 -28
30 -49 8z"/>
<path d="M14660 7475 c-11 -13 -7 -15 25 -15 32 0 36 2 25 15 -7 8 -18 15 -25
15 -7 0 -18 -7 -25 -15z"/>
<path d="M15060 7475 c-11 -13 -8 -15 20 -15 21 0 30 4 28 13 -7 18 -33 20
-48 2z"/>
<path d="M15818 7479 c-36 -20 -17 -83 23 -77 18 2 25 10 27 31 3 26 -12 57
-27 57 -3 0 -14 -5 -23 -11z"/>
<path d="M16260 7475 c-11 -13 -8 -15 20 -15 21 0 30 4 28 13 -7 18 -33 20
-48 2z"/>
<path d="M16601 7476 c-7 -8 -11 -27 -9 -43 2 -21 9 -29 27 -31 41 -6 59 58
22 78 -25 13 -26 13 -40 -4z"/>
<path d="M16770 7475 c-11 -13 -7 -15 25 -15 32 0 36 2 25 15 -7 8 -18 15 -25
15 -7 0 -18 -7 -25 -15z"/>
<path d="M5427 6756 c-90 -33 -165 -113 -188 -200 -16 -58 -6 -163 20 -213 27
-53 79 -106 134 -135 34 -19 58 -23 127 -23 96 0 143 18 205 80 63 63 80 108
80 210 0 74 -4 97 -23 132 -29 55 -81 107 -135 135 -53 27 -166 34 -220 14z
m23 -180 c0 -20 -27 -39 -45 -32 -25 9 -30 37 -10 52 20 15 55 2 55 -20z m178
-64 c18 -12 32 -68 32 -129 0 -52 0 -53 -30 -53 -30 0 -30 0 -30 59 0 61 -16
89 -45 77 -11 -4 -15 -22 -15 -71 l0 -65 -30 0 -30 0 0 91 0 92 35 -6 c19 -3
37 -1 40 4 7 11 55 12 73 1z m-188 -92 c0 -89 0 -90 -25 -90 -25 0 -25 1 -25
90 0 89 0 90 25 90 25 0 25 -1 25 -90z"/>
<path d="M6320 6753 c-63 -23 -151 -113 -173 -177 -39 -114 -14 -221 72 -307
63 -63 124 -89 206 -89 82 0 143 26 206 89 63 63 89 124 89 206 0 82 -26 143
-89 206 -86 85 -198 111 -311 72z m167 -153 c61 -27 85 -70 80 -144 -3 -53 -7
-62 -40 -92 -49 -45 -67 -44 -67 4 0 29 5 39 22 47 27 12 44 55 33 81 -4 11
-9 25 -9 33 -1 11 -20 15 -83 16 l-81 1 -7 -43 c-8 -55 -1 -77 30 -91 14 -6
25 -16 25 -22 0 -16 -31 -12 -54 8 -20 17 -20 17 -5 -8 9 -14 26 -26 38 -28
26 -4 28 -32 2 -32 -29 0 -79 56 -91 101 -14 51 1 106 37 141 53 51 103 59
170 28z"/>
<path d="M7220 6753 c-63 -23 -151 -113 -173 -177 -39 -114 -14 -221 72 -307
63 -63 124 -89 206 -89 82 0 143 26 206 89 63 63 89 124 89 206 0 82 -26 143
-89 206 -86 85 -198 111 -311 72z m219 -179 c17 -22 21 -41 21 -109 0 -121 -9
-130 -135 -130 -126 0 -135 9 -135 130 0 68 4 87 21 109 19 25 25 26 114 26
89 0 95 -1 114 -26z"/>
<path d="M7234 6566 c-16 -12 -19 -27 -19 -94 0 -106 6 -112 109 -112 50 0 87
5 94 12 8 8 12 45 12 100 0 76 -2 89 -19 98 -30 15 -154 13 -177 -4z m171 -36
c-5 -8 -11 -8 -17 -2 -6 6 -7 16 -3 22 5 8 11 8 17 2 6 -6 7 -16 3 -22z m-50
-2 c40 -18 49 -75 18 -110 -32 -36 -105 -15 -114 32 -6 29 11 67 33 78 30 14
33 14 63 0z"/>
<path d="M7290 6495 c-7 -8 -10 -25 -6 -39 11 -45 71 -45 82 0 8 30 -11 54
-41 54 -12 0 -28 -7 -35 -15z"/>
<path d="M8120 6753 c-63 -23 -151 -113 -173 -177 -39 -114 -14 -221 72 -307
63 -63 124 -89 206 -89 82 0 143 26 206 89 63 63 89 124 89 206 0 82 -26 143
-89 206 -86 85 -198 111 -311 72z m138 -231 c25 25 34 30 44 20 9 -9 5 -19
-20 -45 l-32 -33 30 -29 c20 -19 27 -32 20 -39 -7 -7 -20 0 -40 19 l-30 29
-29 -28 c-20 -19 -36 -26 -47 -22 -15 6 -13 11 16 41 l34 35 -28 29 c-40 42
-23 62 18 22 l32 -31 32 32z"/>
<path d="M5842 5453 c2 -10 10 -18 18 -18 22 0 18 29 -3 33 -14 3 -18 -1 -15
-15z"/>
<path d="M5650 5370 c0 -64 3 -80 15 -80 11 0 15 11 15 36 0 34 1 35 33 32 28
-3 32 -7 35 -35 2 -21 9 -33 18 -33 11 0 14 17 14 80 0 63 -3 80 -14 80 -9 0
-16 -12 -18 -32 -3 -29 -7 -33 -35 -36 -32 -3 -33 -2 -33 32 0 25 -4 36 -15
36 -12 0 -15 -16 -15 -80z"/>
<path d="M6310 5371 c0 -64 3 -81 14 -81 10 0 16 14 18 43 l4 42 19 -42 c10
-24 24 -43 32 -43 8 0 23 19 33 43 l20 42 0 -42 c0 -36 3 -43 20 -43 18 0 20
7 20 80 0 74 -2 80 -21 80 -15 0 -26 -14 -45 -57 l-26 -58 -23 55 c-16 39 -29
56 -44 58 -20 3 -21 -1 -21 -77z"/>
<path d="M5840 5355 c0 -51 3 -65 15 -65 12 0 15 14 15 65 0 51 -3 65 -15 65
-12 0 -15 -14 -15 -65z"/>
<path d="M5930 5355 c0 -58 2 -65 20 -65 17 0 20 7 20 44 0 30 5 46 15 50 29
11 16 33 -20 34 l-35 1 0 -64z"/>
<path d="M6067 5402 c-10 -10 -17 -32 -17 -49 0 -52 52 -79 101 -53 33 18 22
32 -20 25 -24 -4 -42 -2 -46 4 -4 7 9 11 39 11 25 0 48 4 51 10 7 11 -12 51
-29 62 -20 14 -63 8 -79 -10z m68 -22 c4 -6 -7 -10 -25 -10 -18 0 -29 4 -25
10 3 6 15 10 25 10 10 0 22 -4 25 -10z"/>
<path d="M6557 5402 c-10 -10 -17 -32 -17 -49 0 -52 52 -79 101 -53 33 18 22
32 -20 25 -24 -4 -42 -2 -46 4 -4 7 9 11 39 11 25 0 48 4 51 10 7 11 -12 51
-29 62 -20 14 -63 8 -79 -10z m68 -22 c4 -6 -7 -10 -25 -10 -18 0 -29 4 -25
10 3 6 15 10 25 10 10 0 22 -4 25 -10z"/>
<path d="M7610 5681 c-84 -26 -159 -90 -201 -171 -20 -38 -24 -60 -24 -135 0
-78 4 -97 27 -140 32 -60 87 -114 148 -146 l45 -24 755 0 755 0 45 24 c61 32
116 86 148 146 23 43 27 62 27 140 0 78 -4 97 -27 140 -32 60 -87 114 -148
146 l-45 24 -740 2 c-407 1 -751 -2 -765 -6z m323 -253 l22 -23 -25 -3 c-13
-2 -26 1 -28 7 -5 16 -47 14 -61 -3 -32 -38 9 -103 49 -78 11 6 30 12 42 12
l21 0 -23 -25 c-49 -52 -140 -18 -140 53 0 50 32 82 82 82 26 0 45 -7 61 -22z
m467 7 c0 -8 7 -15 15 -15 8 0 15 -7 15 -15 0 -8 -7 -15 -15 -15 -10 0 -15
-11 -15 -35 0 -24 5 -35 15 -35 8 0 15 -7 15 -15 0 -18 -45 -21 -56 -3 -12 19
-23 101 -17 126 6 25 43 31 43 7z m470 0 c0 -8 7 -15 15 -15 8 0 15 -7 15 -15
0 -8 -7 -15 -15 -15 -10 0 -15 -11 -15 -35 0 -24 5 -35 15 -35 8 0 15 -7 15
-16 0 -11 -8 -14 -27 -12 -26 3 -28 7 -31 51 -2 26 -7 47 -13 47 -5 0 -9 7 -9
15 0 8 5 15 10 15 6 0 10 7 10 15 0 8 7 15 15 15 8 0 15 -7 15 -15z m-760 -35
c42 -42 14 -110 -46 -110 -42 0 -64 23 -64 65 0 58 69 86 110 45z m187 -10 c7
-14 13 -42 13 -62 0 -31 -4 -38 -19 -38 -17 0 -20 8 -23 48 -3 40 -6 47 -25
50 -21 3 -23 0 -23 -47 0 -44 -3 -51 -20 -51 -18 0 -20 7 -20 65 l0 64 52 -2
c45 -2 54 -6 65 -27z m313 -35 l0 -63 -55 -1 c-45 0 -57 4 -70 22 -39 56 -4
106 74 105 l51 0 0 -63z m154 49 c9 -8 16 -20 16 -25 0 -12 -27 -12 -35 1 -10
17 -43 11 -50 -9 -11 -37 4 -53 46 -46 42 7 53 -7 20 -25 -29 -15 -67 -12 -85
6 -21 20 -20 73 1 96 20 22 66 24 87 2z"/>
<path d="M8041 5376 c-19 -23 -4 -58 22 -54 17 2 22 10 22 33 0 34 -24 45 -44
21z"/>
<path d="M8514 5376 c-11 -29 0 -51 26 -51 21 0 25 5 25 30 0 24 -5 31 -23 33
-13 2 -24 -3 -28 -12z"/>
<path d="M9190 1610 c-41 -4 -90 -13 -109 -19 -21 -6 -40 -7 -51 -1 -18 10
-57 3 -77 -12 -7 -5 -17 -7 -23 -3 -10 6 -75 -12 -96 -27 -14 -10 -133 -48
-151 -48 -23 0 -104 -45 -171 -95 -35 -25 -74 -51 -86 -56 -13 -6 -30 -23 -39
-37 -8 -15 -49 -61 -89 -102 -76 -77 -148 -162 -148 -174 0 -4 -9 -19 -20 -34
-14 -19 -21 -51 -26 -112 -4 -47 -10 -92 -15 -101 -13 -25 -13 -253 0 -459 12
-183 18 -220 49 -293 l16 -37 973 0 c740 0 973 3 973 12 0 32 -26 78 -49 88
-14 5 -35 15 -46 22 -74 46 -96 57 -143 72 -29 10 -59 15 -66 13 -8 -3 -22 0
-32 7 -13 10 -26 11 -46 4 -30 -11 -88 8 -88 28 0 6 -9 19 -19 28 -11 10 -17
24 -14 32 6 17 -9 18 -25 2 -9 -9 -12 -7 -12 10 0 19 28 44 55 48 6 0 13 2 18
4 10 4 25 7 37 9 7 1 7 7 1 19 -6 12 -6 34 0 61 9 40 2 73 -8 43 -3 -6 -9 -10
-14 -6 -18 11 24 38 62 40 28 2 39 -2 42 -14 3 -12 5 -10 6 6 1 13 -5 22 -14
22 -17 0 -20 16 -5 25 6 3 10 19 10 35 0 32 -17 46 -111 94 -53 26 -57 31 -63
71 -3 29 -1 53 9 72 8 15 15 36 15 46 0 11 9 26 21 35 11 10 21 26 23 37 2 11
5 19 7 18 27 -12 63 -23 75 -23 8 0 14 -4 14 -10 0 -8 41 -19 94 -25 12 -1 22
-4 24 -5 4 -4 21 -7 47 -9 15 0 25 -7 25 -16 0 -8 3 -15 8 -15 18 -1 62 -51
66 -76 7 -38 26 -55 26 -24 0 18 3 21 12 12 8 -8 8 -15 -2 -27 -17 -21 -8 -99
15 -121 11 -12 14 -19 6 -22 -6 -2 -11 -11 -11 -19 0 -10 6 -13 16 -9 14 5 15
1 10 -21 -11 -48 -11 -52 -1 -52 6 0 9 7 9 14 -1 8 2 12 7 9 5 -2 8 -20 7 -39
-1 -24 -7 -36 -20 -41 -22 -7 -23 -17 -3 -34 12 -10 21 -10 40 -2 20 9 25 9
25 -3 0 -9 -6 -12 -15 -9 -21 8 -20 -22 1 -34 12 -7 13 -11 5 -16 -8 -5 -3
-15 15 -29 19 -15 29 -17 32 -9 2 7 8 12 14 12 5 0 7 -9 3 -20 -5 -15 -3 -18
9 -14 27 10 18 39 -16 53 -21 8 -28 15 -20 18 8 3 27 -4 42 -15 26 -20 29 -20
36 -4 10 23 5 52 -11 78 -13 20 -12 22 5 27 13 3 20 0 20 -8 0 -8 7 -18 15
-22 13 -8 13 -14 -1 -56 -9 -26 -20 -50 -25 -53 -6 -3 -5 -12 2 -21 11 -12 8
-13 -17 -7 -17 4 -26 3 -21 -2 5 -5 14 -9 20 -9 5 0 12 -5 14 -11 2 -7 -4 -11
-14 -10 -12 0 -19 -7 -21 -21 -2 -13 2 -23 8 -23 6 0 9 -3 7 -7 -9 -15 12 -53
28 -53 9 0 13 -5 10 -10 -4 -6 -15 -8 -26 -5 -26 9 -24 -1 7 -30 33 -30 44
-31 44 -5 0 11 4 20 9 20 5 0 11 13 13 29 2 17 1 28 -3 26 -4 -3 -10 2 -13 11
-8 22 -7 36 2 30 4 -2 14 -1 21 3 10 7 10 13 2 30 -8 14 -8 21 -1 21 15 0 12
27 -6 65 -11 24 -13 39 -6 52 6 10 11 77 11 148 0 114 -5 160 -34 310 -12 62
-29 121 -42 145 -7 14 -13 37 -13 52 0 19 -9 34 -30 49 -27 20 -110 128 -110
144 0 12 -72 80 -96 90 -14 5 -44 27 -67 48 -67 61 -204 146 -253 157 -25 6
-57 19 -72 30 -15 11 -47 24 -72 31 -57 14 -241 19 -340 9z m1010 -985 c0 -3
-8 -14 -18 -25 -17 -19 -18 -19 -20 5 -1 19 3 25 18 25 11 0 20 -2 20 -5z m30
-35 c0 -15 -28 -80 -34 -80 -5 0 1 50 10 78 4 15 24 16 24 2z m-80 -40 c0 -16
-4 -30 -8 -30 -6 0 -9 47 -3 58 5 10 11 -3 11 -28z m-13 -77 c-3 -10 -5 -4 -5
12 0 17 2 24 5 18 2 -7 2 -21 0 -30z m74 12 c1 -17 -18 -17 -25 0 -4 11 -1 15
10 13 8 -2 15 -7 15 -13z m-571 -65 c0 -11 -4 -20 -10 -20 -5 0 -10 9 -10 20
0 11 5 20 10 20 6 0 10 -9 10 -20z m547 -15 c-4 -8 -13 -15 -22 -15 -21 0 -19
28 3 32 22 5 26 2 19 -17z m117 -87 c3 -13 1 -24 -4 -26 -5 -2 -6 -10 -3 -18
3 -8 1 -14 -5 -14 -10 0 -22 67 -13 75 10 10 19 4 25 -17z m-24 -124 c0 -8 -4
-12 -10 -9 -5 3 -10 10 -10 16 0 5 5 9 10 9 6 0 10 -7 10 -16z"/>
<path d="M9752 425 c0 -16 2 -22 5 -12 2 9 2 23 0 30 -3 6 -5 -1 -5 -18z"/>
<path d="M9627 343 c-12 -12 -7 -22 8 -17 8 4 15 10 15 15 0 11 -14 12 -23 2z"/>
<path d="M9650 302 c0 -7 -8 -12 -17 -12 -17 -1 -17 -1 0 -11 10 -6 24 -9 32
-7 12 3 12 6 -1 22 -8 11 -14 14 -14 8z"/>
<path d="M10266 34 c-9 -23 -7 -34 5 -34 5 0 7 5 4 10 -3 5 -1 10 4 10 6 0 11
7 11 15 0 20 -16 19 -24 -1z"/>
</g>
</svg>
